<?xml version="1.0" standalone="no"?>
<!DOCTYPE svg PUBLIC "-//W3C//DTD SVG 20010904//EN"
 "http://www.w3.org/TR/2001/REC-SVG-20010904/DTD/svg10.dtd">
<svg version="1.0" xmlns="http://www.w3.org/2000/svg"
 width="1200.000000pt" height="1200.000000pt" viewBox="0 0 1200.000000 1200.000000"
 preserveAspectRatio="xMidYMid meet">
<metadata>
Created by potrace 1.14, written by Peter Selinger 2001-2017
</metadata>
<g transform="translate(0.000000,1200.000000) scale(0.100000,-0.100000)"
fill="#000000" stroke="none">
<path d="M2684 11983 c3 -10 10 -38 16 -63 6 -25 28 -83 48 -130 116 -275 322
-506 630 -708 198 -129 345 -162 731 -162 132 0 211 -4 205 -9 -18 -19 -217
-92 -258 -95 -24 -3 -75 -20 -113 -39 -276 -139 -827 -234 -1203 -207 -247 18
-433 51 -890 160 -503 120 -666 145 -884 137 -156 -6 -232 -21 -343 -72 -111
-51 -177 -100 -300 -221 -62 -62 -119 -114 -127 -117 -8 -3 -24 -24 -35 -45
-11 -22 -32 -54 -47 -71 -18 -22 -24 -38 -20 -54 3 -14 -13 -81 -42 -167 l-47
-145 -3 -403 c-2 -276 1 -408 8 -420 8 -13 10 -1 5 48 l-5 65 25 -69 c31 -87
77 -176 124 -241 21 -27 49 -70 63 -95 15 -25 39 -52 55 -60 15 -8 63 -38 106
-67 81 -54 180 -93 231 -93 24 1 11 8 -54 33 -103 39 -157 70 -233 132 -66 54
-117 147 -117 211 0 22 -14 107 -30 189 -35 176 -38 272 -11 400 37 176 110
327 235 485 42 52 95 119 118 148 47 59 89 85 176 107 72 19 279 45 355 45
135 0 513 -66 682 -120 50 -16 132 -36 182 -45 105 -18 96 -15 221 -62 51 -20
99 -41 105 -48 7 -6 30 -18 52 -25 22 -7 87 -37 145 -68 189 -99 198 -103 289
-115 l88 -11 -65 -80 c-35 -45 -76 -97 -91 -116 l-28 -34 -50 50 c-58 58 -154
214 -162 264 -5 29 -11 36 -33 38 -24 3 -28 -1 -38 -40 -6 -24 -26 -99 -45
-168 -56 -205 -58 -216 -53 -308 4 -59 15 -116 35 -176 l30 -89 -72 -86 c-94
-112 -300 -312 -395 -382 -215 -160 -426 -265 -638 -318 -108 -27 -175 -37
-434 -66 -267 -30 -338 -43 -444 -85 -100 -40 -183 -99 -268 -191 l-66 -71 0
-4019 0 -4019 990 0 989 0 10 38 c5 20 19 75 31 122 31 127 62 220 160 480
144 384 189 550 249 920 16 101 24 124 59 180 22 36 50 75 61 88 12 12 21 26
21 31 0 4 8 16 19 25 18 17 19 13 23 -126 3 -95 11 -165 23 -208 l18 -65 -33
-90 c-29 -79 -32 -96 -27 -162 8 -105 57 -181 146 -227 41 -22 78 -72 103
-142 16 -46 21 -84 22 -174 1 -112 0 -118 -38 -210 -63 -154 -82 -258 -57
-322 12 -32 76 -95 130 -129 42 -27 51 -29 145 -28 56 1 90 3 76 5 -88 14
-150 29 -182 47 -21 11 -36 22 -34 24 2 2 21 -5 42 -16 21 -12 47 -21 56 -21
26 0 22 27 -4 34 -39 10 -44 6 -13 -9 l30 -14 -30 6 c-16 3 -35 11 -40 18 -6
7 -25 16 -44 20 -35 7 -80 45 -100 82 -16 31 -14 77 6 118 15 31 18 34 25 18
5 -11 6 -2 2 20 -4 29 -2 37 7 31 9 -5 10 1 5 22 l-6 29 15 -25 16 -25 -7 25
c-4 14 -9 32 -11 40 -2 8 3 4 12 -10 l16 -25 -6 32 c-4 20 -1 36 7 44 8 7 13
28 11 48 -1 20 1 26 3 14 3 -13 10 -23 15 -23 5 0 9 -8 10 -17 0 -14 2 -15 6
-3 4 8 13 20 22 27 9 7 11 12 4 13 -6 0 -14 8 -16 18 -3 10 -5 5 -6 -12 0 -16
-4 -26 -8 -23 -3 4 -7 60 -8 124 -1 65 0 93 2 63 5 -64 14 -78 37 -55 14 15
16 15 16 1 0 -24 19 -19 30 7 7 17 8 13 3 -17 -5 -35 -4 -38 12 -32 15 5 16 4
5 -9 -7 -8 -10 -21 -7 -30 9 -23 -12 -29 -34 -9 -26 23 -37 10 -13 -17 18 -20
18 -21 0 -35 -25 -18 -12 -32 15 -16 16 10 24 9 44 -4 20 -13 24 -22 21 -55
-3 -30 -1 -37 9 -29 9 8 11 4 7 -15 -2 -14 0 -25 6 -25 5 0 12 -18 14 -39 2
-22 0 -37 -4 -35 -10 6 -10 -20 -1 -30 4 -4 6 -22 5 -41 -2 -18 2 -36 8 -40 9
-6 10 1 5 24 -4 18 -3 31 3 31 9 0 20 -48 25 -112 1 -14 5 -24 9 -22 4 3 10
-18 14 -46 l7 -50 44 0 c37 0 44 3 39 16 -3 9 -6 34 -7 57 0 33 -2 38 -9 22
-8 -19 -9 -19 -9 2 -1 12 -6 33 -12 47 -8 18 -9 36 -1 65 5 23 6 41 1 41 -5 0
-9 7 -9 16 0 10 -6 14 -15 10 -16 -6 -21 14 -6 30 5 5 11 18 14 29 3 12 5 7 6
-14 1 -26 4 -32 12 -24 8 8 7 23 -4 56 -8 25 -12 49 -9 53 4 4 2 4 -5 0 -9 -5
-11 4 -7 31 4 38 0 33 -16 -20 -6 -17 -6 -25 0 -22 16 10 23 -22 11 -52 -9
-22 -10 -23 -7 -5 3 14 -3 31 -14 42 -11 11 -15 22 -10 25 6 4 9 21 9 38 l-1
32 -7 -30 c-5 -25 -8 -27 -14 -12 -4 11 -5 22 -3 25 2 4 1 27 -4 50 -5 32 -4
52 7 73 8 16 12 37 10 47 -4 13 -5 11 -6 -5 0 -13 -5 -23 -10 -23 -5 0 -12 -8
-14 -17 -4 -15 -5 -15 -6 2 0 11 6 33 14 49 16 31 19 58 8 70 -5 4 -8 20 -9
34 -2 119 -5 137 -15 122 -9 -12 -10 -11 -6 8 3 12 2 20 -1 18 -4 -2 -7 29 -7
70 0 46 -4 77 -12 82 -8 5 -8 13 1 31 10 18 10 38 -1 99 -44 248 -57 532 -33
742 19 177 23 185 93 221 33 16 106 59 161 93 56 35 135 83 176 107 41 24 101
63 134 86 65 48 57 49 131 -19 90 -82 181 -149 413 -303 231 -154 402 -285
402 -308 0 -6 24 -42 53 -81 140 -188 199 -315 256 -549 59 -242 67 -448 26
-668 -33 -176 -66 -279 -135 -416 -16 -34 -30 -64 -30 -67 0 -3 28 -6 63 -6
l63 0 36 63 c75 129 133 281 188 494 39 149 46 242 31 418 -20 234 -50 368
-121 540 -61 146 -211 381 -352 551 -114 137 -414 434 -547 541 l-24 19 38 37
c21 20 43 34 49 30 6 -3 8 -2 3 2 -4 5 1 18 12 29 25 27 151 233 151 246 0 6
12 29 26 51 14 22 41 75 60 117 19 42 37 78 39 80 2 3 32 -17 67 -43 35 -26
108 -69 163 -95 88 -41 113 -48 210 -58 85 -9 125 -9 179 1 112 19 92 33 -47
32 -102 0 -126 3 -140 17 -9 9 -38 24 -64 34 -106 39 -236 152 -283 244 l-20
38 30 74 c16 40 36 100 46 133 9 33 19 64 22 70 3 5 7 16 8 25 1 8 13 60 27
115 14 55 29 121 32 147 5 29 11 45 18 41 6 -3 7 -1 3 5 -3 6 1 80 9 164 30
297 34 355 35 511 0 87 -4 166 -9 175 -5 9 -12 44 -15 77 -5 48 -4 54 4 29 6
-18 18 -35 27 -38 15 -6 15 -4 -2 14 -10 11 -13 20 -7 20 7 0 12 -5 12 -11 0
-6 9 -8 21 -4 13 5 19 3 15 -3 -3 -5 1 -13 10 -16 10 -4 13 -2 8 6 -5 7 -3 8
5 4 7 -5 10 -14 7 -22 -6 -16 10 -19 19 -4 11 17 45 11 45 -7 0 -10 4 -14 8
-8 9 12 65 17 57 5 -3 -4 3 -6 12 -4 10 2 47 6 83 8 36 2 75 7 87 9 30 8 55
-24 58 -75 1 -24 5 -54 9 -68 13 -55 15 -139 4 -142 -9 -3 -7 -15 5 -40 9 -20
17 -43 17 -52 0 -9 5 -16 11 -16 5 0 7 -5 4 -10 -4 -6 -12 -7 -18 -3 -7 3 -4
-3 6 -15 11 -11 16 -27 12 -34 -3 -7 0 -5 8 5 18 21 23 21 31 1 4 -10 2 -13
-7 -9 -6 4 -4 0 5 -8 12 -10 14 -17 7 -24 -8 -8 -6 -11 7 -10 12 1 24 -10 34
-31 16 -34 23 -43 101 -148 36 -48 44 -65 35 -75 -8 -8 -8 -10 0 -6 11 7 39
-15 83 -65 21 -24 22 -30 10 -45 -12 -16 -12 -17 2 -6 13 11 23 5 60 -34 24
-26 43 -51 41 -56 -1 -4 2 -6 7 -3 12 8 42 -34 34 -47 -3 -6 -2 -7 4 -4 5 3
31 -16 57 -43 43 -44 47 -52 35 -67 -13 -16 -12 -17 4 -4 15 12 23 8 68 -35
29 -27 68 -64 88 -83 20 -19 57 -51 83 -72 26 -20 44 -40 40 -44 -4 -5 -2 -5
4 -2 6 4 20 -3 30 -14 11 -12 54 -47 96 -79 42 -32 74 -61 70 -65 -4 -4 -2 -5
3 -4 20 7 99 -54 87 -66 -4 -5 -2 -5 5 -1 7 4 24 -1 38 -10 21 -14 23 -19 13
-33 -12 -14 -11 -14 4 -3 15 12 22 11 50 -9 18 -13 38 -27 43 -32 6 -5 55 -38
110 -73 55 -35 94 -64 88 -64 -14 0 -128 -230 -161 -325 -36 -103 -71 -247
-81 -333 -5 -45 -16 -93 -24 -105 -11 -16 -12 -28 -5 -41 5 -9 7 -24 4 -31 -3
-8 -1 -17 4 -20 19 -12 10 -26 -9 -15 -11 5 -29 10 -39 10 -46 0 -423 188
-510 254 -83 64 -112 73 -61 20 69 -72 240 -167 527 -293 39 -17 97 -47 129
-65 67 -40 238 -101 303 -110 145 -20 540 -102 545 -114 2 -7 0 -10 -5 -7 -6
3 -10 2 -10 -3 0 -5 -18 -16 -39 -24 -28 -11 -53 -34 -86 -79 -82 -113 -124
-212 -146 -344 -11 -73 -16 -438 -5 -471 3 -10 12 -75 20 -144 19 -155 52
-420 65 -520 9 -64 31 -198 48 -293 4 -21 11 -27 30 -27 20 0 23 4 18 20 -4
12 -1 28 6 36 7 9 13 43 12 82 0 41 2 50 4 24 2 -24 8 -40 14 -37 5 4 8 -7 7
-24 -1 -17 -6 -31 -10 -31 -4 0 -8 -15 -7 -32 1 -31 1 -32 9 -8 l8 25 1 -27
c1 -16 5 -28 11 -28 5 0 7 8 3 18 -5 15 -4 15 9 -1 9 -13 24 -18 43 -15 29 3
30 5 32 53 1 38 -1 45 -8 30 -7 -15 -8 -9 -4 22 3 23 7 50 10 60 3 10 -1 5 -8
-11 l-14 -29 -7 51 c-3 27 -2 62 4 76 5 15 10 55 10 88 0 83 6 70 13 -27 4
-50 2 -74 -3 -65 -6 8 -10 11 -10 5 0 -5 5 -17 10 -25 6 -10 10 -11 10 -2 0 7
13 12 30 12 28 0 30 -2 30 -40 0 -22 5 -40 10 -40 6 0 10 18 10 40 0 36 3 40
25 40 14 0 25 4 25 9 0 15 39 19 51 5 6 -8 18 -14 26 -14 12 0 13 3 4 13 -6 8
-9 16 -6 19 3 2 -6 15 -20 28 -14 13 -25 18 -25 12 0 -7 -7 -12 -15 -12 -8 0
-15 5 -15 10 0 6 7 10 15 10 18 0 19 0 73 16 35 11 42 11 42 -1 0 -19 -17 -28
-23 -13 -4 10 -8 9 -16 -2 -8 -11 -2 -21 25 -44 20 -16 41 -40 47 -55 l11 -26
4 28 c2 15 7 27 12 27 5 0 7 8 3 17 -5 15 -4 16 8 5 11 -10 11 -16 1 -32 -15
-24 -15 -33 -1 -24 21 13 -3 -40 -35 -78 -32 -37 -46 -46 -46 -28 0 6 5 10 10
10 6 0 9 10 9 23 -1 19 -2 19 -6 3 -4 -15 -7 -16 -14 -5 -5 9 -7 -2 -5 -28 3
-47 -11 -67 -39 -57 -15 6 -16 5 -4 -14 l14 -22 22 24 c12 13 36 27 52 31 59
13 114 134 96 213 -9 41 -41 72 -160 152 -55 38 -120 88 -144 113 l-43 45 4
69 c5 79 37 154 106 248 69 93 82 125 84 207 4 105 -3 159 -23 193 -29 49 -39
134 -28 222 6 43 13 104 16 136 l5 57 34 0 34 0 -29 -40 c-36 -50 -45 -98 -29
-152 l12 -43 6 71 c8 98 30 125 144 180 104 50 201 86 232 86 65 1 270 -112
358 -197 113 -108 206 -334 236 -575 21 -175 11 -518 -25 -835 -21 -181 -20
-225 4 -225 16 0 20 16 35 158 9 86 23 191 31 232 8 41 15 98 16 125 2 82 -11
412 -21 526 -10 113 -70 367 -98 409 -28 44 -72 124 -93 170 -32 71 -50 102
-89 150 -64 79 -68 89 -63 162 6 88 -9 139 -52 176 -18 17 -40 34 -48 39 -9 4
-17 17 -19 28 -2 15 8 23 52 39 118 41 350 136 444 181 l100 48 45 -18 c25
-10 87 -29 136 -42 169 -46 446 -41 567 12 30 13 9 14 -212 12 -223 -2 -253 0
-330 20 -47 12 -100 28 -119 36 l-34 14 49 33 c119 82 236 215 302 345 66 133
178 449 196 560 19 110 111 466 132 507 46 91 74 192 80 297 4 56 11 101 17
101 5 0 34 -14 63 -31 61 -34 61 -34 68 -169 9 -164 48 -310 131 -486 72 -153
121 -216 292 -370 l32 -29 -14 -73 c-16 -80 -88 -238 -157 -342 -105 -160
-317 -329 -488 -391 -18 -7 -11 -8 29 -4 150 13 372 179 502 376 76 114 107
181 139 302 15 56 32 101 36 100 5 -1 46 -26 91 -55 46 -29 104 -66 130 -83
141 -87 313 -257 362 -358 43 -86 49 -155 22 -236 -23 -66 -21 -82 7 -65 34
22 62 94 62 159 0 80 -18 139 -66 211 -54 83 -245 271 -334 329 -83 55 -247
214 -255 248 -2 12 -9 78 -15 147 -18 210 -69 374 -156 506 -35 53 -40 66 -45
144 -3 47 -5 86 -4 88 2 2 17 -27 33 -63 141 -301 348 -556 632 -783 86 -68
132 -114 177 -175 108 -145 120 -171 148 -307 15 -69 35 -156 45 -194 21 -76
20 -111 -11 -249 -38 -169 -135 -402 -226 -542 -81 -124 -211 -225 -322 -252
-83 -19 -245 -16 -354 6 -116 24 -147 29 -147 24 0 -29 149 -85 319 -119 114
-23 143 -25 296 -21 184 4 245 16 401 76 198 77 439 290 470 417 4 16 20 63
37 104 34 87 58 171 82 290 14 66 16 114 12 215 -13 307 -118 584 -309 810
-396 471 -469 580 -613 911 -52 120 -95 222 -95 227 0 4 33 -20 73 -54 86 -72
203 -138 309 -173 92 -31 126 -32 178 -6 62 32 90 87 114 225 10 58 -16 135
-62 187 -52 57 -68 61 -47 12 27 -65 11 -144 -36 -177 -20 -15 -25 -15 -52 1
-66 38 -210 229 -262 346 -29 66 -75 235 -75 275 l1 26 17 -32 c21 -39 130
-136 180 -162 94 -47 237 -71 429 -71 54 -1 128 -5 165 -9 134 -18 255 -98
338 -225 42 -64 55 -54 20 14 -29 57 -75 106 -155 166 -38 28 -79 60 -90 71
-74 70 -237 165 -390 228 -49 20 -102 46 -118 57 -49 35 -91 117 -108 208 -4
25 -15 74 -24 110 -21 82 -15 179 21 345 61 282 66 327 61 530 -5 194 -26 355
-66 496 l-19 66 73 6 c152 11 338 143 469 332 133 192 212 368 235 525 5 36
22 97 37 135 28 68 28 75 29 265 0 211 -6 256 -65 445 -37 120 -101 265 -192
439 -37 70 -68 132 -68 136 0 23 -87 135 -202 258 -38 41 -75 96 -108 161
-147 293 -342 558 -550 744 -36 33 -81 73 -100 91 -37 33 -148 103 -451 284
-102 61 -210 127 -240 147 -293 197 -472 468 -574 870 l-23 90 -150 2 c-147 2
-150 1 -156 -20 -3 -12 -6 -89 -6 -172 0 -223 31 -372 106 -514 18 -36 32 -66
30 -68 -10 -11 -218 153 -333 263 -55 52 -120 102 -173 133 -142 81 -239 103
-470 106 -154 1 -155 1 -205 32 -105 65 -384 167 -599 219 l-104 24 -663 -2
-664 -3 -150 -81 c-83 -45 -229 -127 -325 -184 -161 -94 -177 -101 -202 -91
-153 62 -385 119 -598 147 -69 9 -161 22 -204 28 -56 9 -92 10 -119 3 -28 -7
-64 -6 -124 3 -89 14 -115 9 -121 -23 -3 -13 5 -16 41 -15 58 1 187 -60 217
-102 12 -17 27 -30 35 -30 27 0 165 -191 165 -228 0 -17 -35 -48 -76 -66 -65
-29 -175 -49 -304 -57 -74 -4 -160 -12 -190 -17 -71 -12 -233 1 -330 27 -118
31 -361 111 -402 132 -49 25 -218 195 -291 292 -65 86 -126 185 -146 235 -15
35 -57 48 -47 15z m5979 -554 c40 -6 81 -16 92 -22 25 -12 115 -85 133 -106 6
-8 12 -11 12 -5 0 5 6 2 13 -6 24 -29 81 -75 68 -55 -8 11 3 3 23 -17 20 -21
41 -38 47 -38 5 0 7 -5 3 -12 -5 -7 -3 -8 6 -3 7 4 15 4 19 -1 3 -5 42 -36 86
-68 44 -33 121 -95 172 -138 91 -77 107 -86 117 -69 6 10 -49 71 -65 71 -5 0
-7 5 -4 10 3 6 0 10 -8 10 -8 0 -20 7 -27 15 -9 10 -9 15 -1 15 6 0 11 -4 11
-10 0 -5 8 -10 18 -10 10 0 28 -7 40 -16 13 -9 62 -36 110 -61 233 -121 353
-193 345 -205 -3 -6 -1 -8 4 -5 6 4 22 -3 37 -14 22 -18 27 -18 32 -5 5 13 8
13 19 3 7 -7 32 -29 55 -48 24 -18 55 -44 69 -56 14 -13 37 -32 51 -44 96 -80
190 -174 186 -186 -4 -9 -1 -11 5 -7 14 8 91 -75 82 -89 -3 -6 -1 -7 5 -3 28
17 286 -341 377 -524 23 -47 54 -107 68 -135 40 -75 69 -145 81 -195 7 -30 17
-46 29 -48 16 -3 17 -1 8 17 -6 11 -27 68 -47 128 -41 126 -98 263 -130 314
-13 20 -20 40 -17 43 4 3 1 6 -5 6 -6 0 -14 10 -18 23 -14 44 -152 240 -246
349 -27 30 -48 61 -48 68 0 7 -2 11 -5 9 -2 -3 -54 42 -114 100 -60 58 -138
129 -172 156 -35 28 -72 59 -83 70 -12 12 -25 21 -30 21 -5 1 -23 12 -40 25
-38 30 -130 89 -139 89 -4 0 -39 21 -79 48 -101 65 -107 69 -158 92 -36 17
-42 23 -30 31 12 8 10 9 -6 4 -26 -7 -94 30 -94 51 0 8 -3 13 -7 12 -5 0 -28
8 -53 20 -25 12 -50 22 -57 22 -18 0 -180 97 -203 122 -10 12 -16 26 -13 32 3
6 2 8 -2 3 -12 -10 -55 32 -49 48 3 7 0 16 -7 21 -8 4 -10 3 -5 -4 4 -7 5 -12
2 -12 -3 0 -10 9 -15 19 -9 16 -8 18 9 14 10 -3 47 9 81 26 68 34 115 39 198
19 39 -9 51 -16 51 -30 0 -11 5 -16 10 -13 6 3 13 -2 17 -11 4 -10 32 -45 62
-77 31 -33 55 -64 53 -69 -1 -5 1 -7 6 -4 5 3 31 -15 58 -39 27 -25 52 -45 55
-45 13 0 48 -38 41 -44 -4 -4 -2 -6 4 -4 18 5 125 -63 117 -75 -3 -5 -1 -7 4
-4 6 4 51 -18 102 -48 50 -30 94 -55 99 -55 4 0 19 -10 32 -22 14 -13 27 -22
30 -22 13 3 29 -9 23 -19 -3 -6 -1 -7 5 -3 6 4 42 -12 79 -35 37 -23 88 -53
113 -67 25 -14 64 -38 87 -53 23 -16 48 -29 56 -29 8 0 54 -40 103 -88 91 -90
148 -152 140 -152 -3 0 5 -10 17 -23 116 -122 288 -391 401 -627 94 -196 164
-433 200 -676 16 -107 42 -441 35 -449 -11 -11 -235 -27 -293 -20 -99 10 -101
14 -71 114 66 222 71 321 26 501 -47 188 -57 218 -63 193 -3 -12 -2 -25 3 -30
4 -4 15 -42 24 -83 37 -175 29 -333 -26 -526 -17 -60 -33 -111 -35 -113 -7 -7
-45 43 -59 77 -13 29 -18 32 -57 33 -49 1 -76 3 -317 25 -96 9 -196 22 -222
28 l-49 11 26 50 c39 77 90 232 109 331 18 94 24 319 9 334 -5 5 -8 -32 -6
-88 4 -99 -11 -208 -42 -312 -9 -30 -19 -65 -20 -77 -5 -29 -76 -195 -90 -209
-13 -13 -251 -74 -290 -74 -15 0 -51 19 -88 46 -35 25 -84 57 -110 70 -53 27
-57 40 -34 96 31 74 134 140 272 174 56 14 72 24 112 66 26 28 61 57 77 66
l30 16 -25 7 c-68 19 -172 9 -363 -37 -321 -77 -490 -99 -573 -75 -38 11 -81
47 -100 83 -19 36 -18 114 2 146 37 63 194 146 368 196 93 27 279 54 445 64
l115 7 -85 34 c-102 42 -515 228 -619 279 l-75 37 -166 0 -166 0 14 55 c8 30
24 77 35 103 20 46 20 65 0 53 -12 -7 -68 -149 -77 -193 -6 -30 -9 -32 -76
-43 -39 -7 -72 -10 -73 -9 -2 2 16 65 41 139 78 238 88 325 53 453 -10 39 -35
104 -54 142 -31 62 -33 71 -18 77 29 11 32 9 48 -32 19 -48 35 -45 24 5 -9 39
-11 38 108 49 50 5 53 4 65 -22 6 -15 15 -30 20 -33 5 -3 8 -8 6 -10 -1 -2 8
-24 21 -49 12 -24 23 -63 24 -86 0 -23 7 -47 14 -53 9 -9 12 2 12 57 0 37 -4
72 -8 78 -5 5 -23 34 -39 64 l-31 56 27 2 c14 2 50 6 80 10 l55 7 -121 60
c-66 33 -119 63 -116 67 2 4 -3 5 -11 2 -9 -3 -16 -1 -16 6 0 6 -4 9 -9 6 -5
-3 -12 6 -15 19 -4 16 -11 23 -18 19 -8 -5 -9 -2 -5 9 4 11 1 17 -7 17 -15 0
-73 70 -68 83 1 5 -2 6 -6 3 -5 -3 -17 3 -27 14 -24 26 -39 26 -25 -1 7 -11 9
-28 6 -36 -5 -13 -4 -14 9 -3 8 7 15 9 15 4 0 -5 11 -22 25 -38 26 -31 28 -47
5 -54 -8 -3 -10 0 -5 8 6 9 4 11 -4 5 -12 -7 -91 22 -91 34 0 3 -11 19 -25 35
-13 16 -22 33 -18 39 3 5 1 7 -4 4 -14 -9 -37 19 -27 34 4 8 3 9 -4 5 -7 -4
-30 10 -54 33 -24 22 -53 48 -65 59 -13 10 -19 23 -15 27 4 5 1 5 -5 1 -15 -8
-75 33 -67 46 3 5 2 8 -3 7 -20 -3 -27 2 -13 12 12 8 11 9 -6 5 -14 -4 -27 1
-39 15 -16 17 -21 18 -30 6 -8 -12 -17 -9 -54 13 -39 24 -41 29 -23 34 11 4
24 6 28 5 5 -1 16 1 24 4 38 16 216 19 303 6z m-312 -122 c85 -83 161 -170
168 -191 2 -6 9 -14 15 -18 6 -4 -16 -8 -49 -9 -131 -3 -139 -9 -84 -67 66
-71 72 -121 17 -167 -39 -33 -75 -32 -161 7 -63 28 -84 33 -165 34 -68 2 -102
-2 -125 -14 -17 -9 -46 -16 -63 -16 -18 -1 -31 -3 -29 -6 2 -3 -60 -20 -138
-39 -78 -18 -157 -37 -174 -42 -18 -6 -38 -7 -44 -3 -7 4 -9 3 -6 -3 9 -15
-295 -103 -311 -90 -9 7 -11 6 -7 -5 5 -11 -3 -17 -27 -22 -18 -3 -57 -17 -86
-31 -70 -32 -86 -32 -80 0 3 15 1 22 -5 18 -6 -4 -7 4 -3 21 4 15 3 25 -2 22
-5 -3 -9 9 -10 27 -1 47 -9 88 -21 120 -6 16 -9 32 -6 37 3 5 1 11 -5 15 -5 3
-10 14 -10 24 0 10 -7 32 -16 50 -15 30 -15 33 2 46 11 8 27 15 37 15 9 0 17
4 17 9 0 5 14 14 30 20 17 5 30 7 30 4 0 -3 6 0 14 6 19 16 127 52 137 45 5
-3 9 -1 9 4 0 10 68 30 256 74 126 29 157 32 334 35 164 3 197 6 207 19 6 9
16 13 22 9 7 -4 8 0 4 11 -5 13 -2 16 9 12 10 -4 15 -1 14 10 -1 10 6 16 16
16 10 -1 16 2 13 6 -8 13 136 88 171 89 15 1 51 -27 105 -82z m123 -39 c17
-16 34 -28 39 -28 5 0 6 -7 3 -16 -4 -12 -2 -15 9 -10 8 3 15 1 15 -4 0 -5 12
-15 28 -23 15 -7 26 -19 25 -25 -2 -7 3 -12 11 -12 8 0 18 -9 21 -20 3 -11 11
-20 16 -20 14 0 39 -26 39 -39 0 -13 -3 -13 -24 -5 -9 3 -13 11 -9 18 4 6 0 5
-9 -2 -14 -11 -20 -9 -38 10 -12 13 -26 33 -31 46 -5 13 -13 20 -19 17 -5 -3
-12 5 -16 19 -3 13 -12 27 -20 30 -8 3 -14 13 -14 21 0 9 -3 14 -7 12 -5 -2
-28 19 -53 47 -43 49 -34 44 34 -16z m-3028 24 c54 -40 102 -95 173 -201 l62
-91 43 0 44 0 60 -89 c156 -229 252 -471 238 -602 -8 -83 -42 -221 -68 -276
-19 -40 -32 -52 -78 -75 -30 -15 -58 -27 -62 -27 -15 -2 -67 88 -79 134 -7 26
-22 58 -34 71 -38 41 -49 102 -35 194 11 74 11 84 -8 137 -12 32 -33 103 -47
158 -33 128 -51 163 -145 285 -49 64 -200 322 -200 343 0 30 39 67 70 67 15 0
45 -13 66 -28z m3463 -306 c10 -12 8 -13 -8 -9 -12 3 -21 9 -21 14 0 14 16 11
29 -5z m-4505 -80 c-3 -8 -13 -16 -22 -19 -9 -3 -26 -8 -37 -12 -14 -5 44 36
62 44 1 1 0 -5 -3 -13z m2400 -36 c20 -28 34 -56 30 -62 -4 -6 -3 -8 3 -5 13
8 38 -32 76 -121 31 -72 31 -72 17 -72 -5 0 -11 10 -11 23 -1 15 -3 17 -6 6
-4 -15 -8 -15 -54 2 -28 11 -85 37 -127 58 -67 34 -151 59 -175 53 -4 -1 -3 6
2 17 16 29 71 72 84 64 7 -3 9 -3 5 2 -7 7 57 59 74 60 4 0 13 6 20 13 19 19
23 16 62 -38z m1942 -126 c-3 -8 -2 -13 3 -10 12 8 91 -174 91 -207 0 -14 4
-28 8 -31 5 -3 7 -42 5 -88 -3 -81 -9 -108 -73 -311 -16 -53 -30 -108 -30
-121 0 -27 -3 -29 -105 -50 -38 -8 -79 -18 -90 -21 -14 -5 -16 -4 -6 3 8 6 9
12 3 16 -5 3 -13 31 -17 62 -4 31 -19 95 -35 141 l-27 84 21 9 c46 17 224 70
271 80 46 10 50 13 50 40 l0 29 -85 -4 c-328 -18 -307 -21 -350 58 -76 140
-109 161 -50 31 22 -47 40 -88 40 -90 0 -8 -25 1 -32 11 -5 7 -8 6 -8 -1 0 -7
-19 -8 -57 -3 -32 4 -89 8 -127 8 -85 1 -144 31 -170 86 -29 61 -23 114 20
171 30 40 74 51 239 59 152 7 151 7 320 39 161 30 199 32 191 10z m-2131 -119
c103 -45 128 -60 161 -91 40 -37 41 -35 -39 -48 -39 -7 -125 25 -158 58 -30
30 -58 100 -51 129 3 16 6 16 25 -6 12 -14 40 -32 62 -42z m-4350 -35 c44 -10
69 -19 55 -19 -14 0 -56 8 -95 18 -90 25 -64 25 40 1z m4648 -40 c7 0 6 -4 -3
-10 -21 -14 -27 -12 -34 6 -5 12 -2 15 10 10 8 -3 21 -6 27 -6z m-4310 -17
c-7 -2 -19 -2 -25 0 -7 3 -2 5 12 5 14 0 19 -2 13 -5z m105 -10 c-16 -2 -40
-2 -55 0 -16 2 -3 4 27 4 30 0 43 -2 28 -4z m4429 -132 c219 -185 338 -367
379 -580 l15 -76 -48 -94 c-26 -52 -64 -117 -84 -144 -20 -27 -42 -70 -49 -95
-27 -112 -52 -182 -63 -182 -7 0 -35 11 -63 25 -70 36 -98 82 -99 165 0 60 3
70 39 120 l38 53 1 141 c0 127 -2 149 -26 219 -32 91 -91 213 -153 313 -50 81
-57 131 -24 164 34 34 72 26 137 -29z m-968 -288 c1 -42 -3 -54 -18 -63 -35
-18 -41 -12 -26 31 8 23 15 60 15 84 0 96 27 48 29 -52z m2301 -38 c10 -44 20
-102 22 -129 l3 -49 -60 -23 c-147 -56 -257 -3 -259 126 -1 36 5 55 27 83 31
41 81 71 103 63 8 -3 13 -2 10 2 -3 5 23 18 57 29 l62 21 8 -22 c5 -11 17 -57
27 -101z m-2345 -119 c-20 -30 -66 -52 -126 -61 -60 -9 -73 9 -22 31 40 17
142 53 156 53 4 1 0 -10 -8 -23z m5208 -436 c22 -30 43 -57 47 -60 28 -23 241
-391 239 -413 0 -1 13 -31 29 -67 17 -36 36 -85 43 -110 7 -25 13 -47 14 -50
1 -3 7 -18 13 -33 16 -39 15 -68 -6 -95 -17 -22 -18 -21 -52 85 -46 141 -159
365 -249 492 -50 71 -78 121 -91 164 -10 34 -27 84 -39 110 -12 27 -21 51 -21
54 0 12 35 -25 73 -77z m75 -317 c56 -87 150 -286 196 -415 66 -183 96 -343
96 -510 l0 -134 -46 -94 c-102 -211 -247 -386 -369 -445 -49 -23 -72 -28 -129
-28 -65 1 -72 4 -140 50 -62 42 -71 52 -74 82 -4 34 -3 34 20 17 52 -38 104
-56 163 -56 155 0 253 125 309 395 24 116 37 338 27 450 -5 55 -17 179 -26
275 -14 155 -47 394 -61 443 -9 29 3 19 34 -30z m-2127 -138 c64 -29 82 -46
104 -98 35 -84 1 -178 -80 -219 -27 -14 -38 -14 -105 -1 -61 11 -103 12 -225
4 -82 -6 -152 -7 -155 -3 -25 36 -130 161 -189 224 l-72 77 33 5 c18 3 130 10
248 17 118 6 229 15 245 20 48 13 136 2 196 -26z m-950 -244 c55 -110 49 -179
-24 -293 -19 -30 -38 -64 -41 -76 -9 -26 -24 -27 -90 -7 -59 18 -288 20 -368
4 -186 -38 -488 -138 -718 -238 -104 -45 -177 -71 -201 -71 -79 0 -119 91 -64
145 13 14 34 25 45 25 38 0 80 29 80 55 l0 24 -67 -25 c-81 -31 -100 -40 -136
-70 -35 -29 -57 -30 -91 -3 -34 27 -35 77 -2 116 14 15 56 46 95 68 39 22 110
65 159 96 88 57 218 114 372 164 47 15 96 35 110 45 40 27 60 33 150 40 47 3
155 21 240 39 85 17 227 42 315 55 l160 23 22 -26 c12 -14 36 -55 54 -90z
m1472 -49 c20 -14 35 -27 33 -29 -7 -8 -73 27 -92 48 -17 19 -17 20 2 13 10
-4 36 -19 57 -32z m262 -474 c87 -121 133 -180 194 -247 108 -120 114 -128
106 -158 -11 -44 -59 -81 -123 -93 -31 -6 -77 -18 -101 -26 -25 -8 -55 -14
-67 -14 -27 0 -30 22 -39 260 -3 85 -8 188 -11 228 -6 62 -5 72 9 72 9 0 23
-10 32 -22z m547 -29 c26 -14 50 -73 42 -104 -3 -14 -10 -25 -14 -25 -8 0 -46
46 -89 108 l-22 32 31 0 c17 0 40 -5 52 -11z m-1588 -100 c38 -10 38 -11 33
-51 -3 -24 -15 -51 -29 -64 -37 -38 -454 -214 -506 -214 -33 0 -142 45 -142
58 0 12 149 221 178 250 20 20 32 22 184 25 90 1 181 4 203 5 22 1 57 -3 79
-9z m-3014 -144 c0 -8 -11 -43 -24 -77 -13 -35 -29 -87 -36 -116 -12 -54 -66
-186 -114 -281 -26 -50 -35 -94 -17 -75 15 14 85 153 104 204 9 25 46 102 81
172 71 140 75 141 80 13 2 -41 9 -61 30 -86 30 -35 30 -52 0 -165 -19 -73 -90
-234 -113 -258 -27 -27 -133 -40 -178 -21 -34 14 -63 59 -63 97 0 13 13 51 30
85 41 88 75 203 90 303 18 131 30 173 52 198 25 25 78 31 78 7z m4957 -1027
c-3 -8 -6 -5 -6 6 -1 11 2 17 5 13 3 -3 4 -12 1 -19z m-1722 -167 c44 -10 102
-22 130 -26 73 -10 231 -75 342 -140 85 -50 105 -58 148 -57 43 0 34 -3 -57
-23 -59 -13 -145 -39 -190 -59 -46 -20 -89 -36 -96 -36 -6 0 -31 14 -54 30
-24 17 -59 41 -78 54 -19 13 -55 43 -80 65 -59 55 -106 78 -191 98 -82 18
-103 35 -94 72 4 14 12 29 18 33 21 14 121 8 202 -11z m-4181 -169 c3 -5 -1
-9 -9 -9 -8 0 -12 4 -9 9 3 4 7 8 9 8 2 0 6 -4 9 -8z m5106 -77 c5 -12 51 -60
104 -106 110 -96 112 -102 70 -202 -51 -121 -203 -414 -241 -462 -15 -19 -59
-90 -73 -120 -8 -16 -17 -32 -20 -35 -15 -13 -75 -118 -138 -238 l-69 -133 -6
43 c-37 263 -57 347 -93 404 -18 27 -18 27 4 15 53 -28 1 41 -56 74 -30 18
-42 35 -24 35 18 0 94 74 118 116 42 71 23 71 -46 -1 -77 -80 -104 -95 -165
-95 l-46 0 26 43 c39 67 30 74 -22 17 -45 -48 -53 -52 -133 -70 -47 -10 -121
-34 -165 -54 -76 -33 -81 -34 -114 -20 -55 23 -67 39 -70 92 -1 41 2 53 26 77
15 16 21 25 13 20 -8 -4 -12 -5 -8 -1 3 4 9 7 12 7 3 0 27 9 53 20 49 21 191
37 234 26 14 -4 34 -15 46 -26 l21 -20 27 40 c16 22 26 41 24 42 -5 4 -323 85
-398 101 -58 13 -84 37 -64 57 18 18 155 37 232 33 36 -2 92 -11 125 -20 32
-8 65 -13 73 -10 8 3 12 2 9 -3 -7 -11 100 -34 115 -25 8 4 9 3 5 -4 -4 -7 -2
-12 3 -12 10 0 15 14 12 33 0 4 3 6 7 5 5 -2 25 14 45 34 32 33 35 41 27 64
-6 14 -10 35 -10 47 0 13 -15 35 -37 54 l-38 31 30 12 c122 47 329 87 391 76
33 -7 66 15 44 29 -19 12 -10 21 28 31 57 14 102 6 112 -21z m-5019 8 c13 -16
12 -17 -3 -4 -10 7 -18 15 -18 17 0 8 8 3 21 -13z m5876 -185 c-2 -13 -4 -3
-4 22 0 25 2 35 4 23 2 -13 2 -33 0 -45z m-3770 -46 c-10 -10 -14 -22 -10 -27
5 -4 2 -5 -5 -1 -11 6 -10 12 4 27 9 10 19 19 22 19 3 0 -2 -8 -11 -18z
m-2100 -144 c-3 -8 -6 -5 -6 6 -1 11 2 17 5 13 3 -3 4 -12 1 -19z m2109 -90
c10 -12 13 -18 5 -13 -10 6 -12 4 -7 -4 5 -7 16 -9 28 -5 14 4 18 2 14 -5 -4
-6 -1 -11 6 -11 12 0 35 -18 108 -82 14 -12 29 -21 33 -20 5 1 6 -2 2 -8 -3
-5 1 -10 11 -10 14 0 15 -2 3 -17 -12 -15 -12 -15 5 -6 14 8 23 5 44 -16 14
-14 25 -27 24 -29 -2 -1 3 -9 11 -16 20 -21 21 -101 0 -136 -13 -22 -14 -33
-6 -41 13 -13 -4 -62 -18 -53 -8 5 -14 -27 -10 -50 1 -5 -4 -6 -12 -3 -10 4
-13 -1 -9 -19 2 -14 0 -24 -7 -24 -6 0 -11 -7 -11 -15 0 -8 -4 -15 -10 -15 -5
0 -12 -11 -16 -24 -3 -14 -12 -27 -20 -30 -8 -3 -14 -15 -14 -26 0 -11 -3 -20
-8 -20 -4 0 -13 -13 -20 -30 -8 -16 -20 -30 -27 -30 -7 0 -18 -13 -24 -30 -5
-16 -17 -30 -25 -30 -9 0 -16 -9 -16 -20 0 -10 -9 -24 -20 -30 -11 -6 -20 -17
-20 -24 0 -7 -12 -22 -27 -32 -14 -10 -34 -27 -45 -36 -10 -10 -25 -18 -33
-18 -23 0 -29 -45 -10 -74 20 -30 30 -33 39 -11 3 8 10 15 16 15 6 0 8 -4 5
-10 -7 -12 -3 -12 20 -3 15 5 15 8 -6 25 l-24 19 25 -6 c24 -6 24 -5 -2 10
-38 21 -36 29 2 10 24 -13 35 -13 53 -4 20 11 21 11 8 -4 -7 -10 -21 -17 -29
-17 -13 0 -14 -2 -3 -12 10 -11 14 -9 23 5 7 14 17 17 36 13 15 -3 21 -3 15 0
-25 11 -12 23 13 13 15 -5 29 -7 32 -4 3 3 0 5 -7 5 -7 0 -9 5 -5 11 4 8 9 8
17 0 6 -6 16 -11 21 -11 6 1 1 9 -12 20 -12 10 -19 21 -14 24 5 3 18 -3 29
-13 17 -17 21 -17 39 -3 17 13 17 14 1 8 -11 -3 -25 0 -33 8 -18 18 -19 32 -1
18 7 -6 33 -9 57 -6 25 2 55 5 68 7 12 1 22 3 22 5 0 1 -10 7 -22 13 -20 8
-19 9 7 4 17 -3 38 -8 49 -12 11 -3 16 -1 12 5 -3 6 24 9 73 9 67 0 82 3 102
21 12 12 28 22 35 22 6 0 14 7 18 15 3 8 3 15 0 15 -11 0 -49 -23 -56 -34 -4
-6 -6 -1 -6 11 2 14 7 19 17 15 8 -3 12 -1 8 4 -6 11 38 13 48 2 12 -12 43 15
37 31 -5 13 -3 14 9 5 11 -9 24 -5 59 17 25 16 57 34 73 40 15 6 27 15 27 20
0 5 8 9 19 9 19 0 84 30 66 30 -13 0 17 20 30 20 6 0 3 -5 -5 -10 -8 -5 -10
-10 -5 -10 12 1 55 35 55 45 0 4 -7 5 -15 1 -23 -9 -18 0 13 20 23 15 25 15
13 1 -7 -9 -9 -17 -3 -17 5 0 15 7 22 15 7 8 21 15 32 15 10 0 17 4 14 8 -2 4
11 7 30 7 27 -1 41 5 60 27 13 16 24 27 24 23 0 -3 5 -3 11 1 8 5 8 9 -1 14
-7 4 0 7 17 8 15 0 60 5 98 10 45 7 97 8 145 2 111 -13 270 -18 270 -9 0 5 5
9 11 9 5 0 7 -4 4 -10 -22 -35 52 -21 100 18 20 17 20 17 2 -4 -9 -11 -14 -23
-11 -26 3 -3 -6 -29 -20 -56 -71 -139 -106 -276 -106 -410 0 -103 15 -169 47
-204 10 -11 12 -18 5 -18 -20 0 -13 -39 7 -50 31 -16 71 -30 71 -24 0 3 -12
16 -27 30 -15 14 -19 22 -10 18 23 -9 21 8 -4 37 -80 90 -79 266 3 497 40 114
75 182 93 182 8 0 28 26 44 58 36 72 55 88 115 102 26 6 60 17 76 25 20 10 44
12 90 7 l62 -7 20 -50 c14 -35 22 -83 25 -161 5 -100 3 -121 -21 -205 -41
-145 -112 -282 -189 -365 -36 -39 -86 -81 -111 -95 -25 -13 -46 -27 -46 -31 0
-21 85 7 109 35 7 10 28 17 46 17 48 0 95 11 95 23 0 6 -18 8 -45 5 -25 -3
-45 -3 -45 1 0 4 19 25 43 47 52 49 134 210 173 339 22 75 27 108 26 200 0 68
-6 128 -15 157 -19 60 -1 56 43 -9 43 -65 66 -136 89 -265 11 -62 23 -122 26
-133 4 -16 -11 -32 -80 -83 -88 -66 -105 -87 -57 -76 32 7 84 39 165 102 32
24 60 43 62 41 2 -2 -38 -88 -89 -190 -107 -215 -137 -310 -170 -531 -17 -121
-25 -152 -37 -150 -7 2 -48 13 -89 23 -198 51 -381 46 -579 -16 -77 -24 -109
-30 -121 -22 -12 7 -23 6 -36 -2 -17 -10 -16 -10 9 -5 42 10 32 -8 -27 -46
-30 -19 -53 -37 -51 -40 2 -4 -10 -15 -27 -25 -17 -10 -44 -32 -60 -49 -16
-17 -27 -25 -23 -18 3 6 1 12 -4 12 -6 0 -11 -4 -11 -10 0 -5 -23 -32 -52 -59
-38 -36 -55 -47 -61 -38 -6 8 -7 6 -3 -6 6 -20 -17 -50 -29 -39 -5 4 -5 1 -1
-5 6 -12 2 -20 -31 -57 -16 -18 -33 -84 -26 -102 3 -9 18 7 42 48 43 74 195
230 217 221 10 -3 12 0 8 10 -3 10 2 18 15 22 12 3 21 10 21 15 0 5 7 6 17 3
11 -4 14 -3 9 5 -4 7 -1 12 9 12 8 0 18 7 22 16 3 10 13 14 25 11 15 -4 17 -3
8 8 -8 9 -7 14 4 18 9 4 18 1 22 -5 5 -7 2 -8 -6 -3 -9 5 -11 4 -6 -4 6 -9 11
-9 22 0 17 14 18 22 2 14 -7 -4 1 5 17 20 19 16 38 24 52 22 12 -2 21 -1 20 2
-6 18 46 50 103 65 146 38 360 31 527 -17 90 -26 82 -5 65 -186 -9 -103 -14
-122 -55 -205 -55 -114 -134 -219 -278 -370 -191 -200 -268 -254 -587 -415
-180 -91 -341 -157 -352 -144 -13 14 -51 124 -65 188 l-13 60 -1 -46 c-1 -39
10 -91 44 -214 4 -17 -5 -25 -57 -50 -34 -16 -94 -53 -133 -82 -38 -28 -73
-49 -77 -46 -5 2 -8 -1 -8 -6 0 -6 -5 -11 -10 -11 -6 0 -27 -11 -48 -24 -20
-13 -55 -27 -77 -31 -22 -4 -46 -12 -54 -18 -34 -29 -321 -3 -292 26 6 6 11
16 11 21 0 6 -5 5 -12 -2 -24 -24 -65 -15 -153 35 -11 6 -58 31 -105 54 -97
48 -118 60 -250 137 -282 165 -492 301 -483 315 3 6 1 7 -5 3 -7 -4 -28 5 -47
20 -30 23 -33 29 -23 43 12 14 11 14 -4 2 -16 -12 -27 -7 -95 45 -43 32 -79
61 -81 66 -2 4 -9 8 -17 8 -7 0 -19 8 -26 17 -12 14 -12 16 0 8 10 -5 12 -4 7
4 -4 6 -11 9 -15 6 -5 -2 -28 12 -52 33 -24 21 -54 47 -66 57 -12 10 -19 23
-16 28 3 6 1 7 -6 3 -7 -4 -26 7 -46 27 -19 19 -46 42 -61 51 -18 13 -24 24
-21 38 4 15 3 18 -5 10 -14 -14 -93 61 -83 78 4 6 2 9 -3 8 -11 -4 -102 89
-102 103 0 6 -4 7 -10 4 -5 -3 -10 -3 -10 2 0 4 -15 24 -33 43 -84 91 -107
122 -101 132 4 6 3 8 -4 4 -6 -3 -19 5 -29 19 -10 14 -33 44 -51 66 -17 23
-29 46 -25 51 3 6 1 8 -4 5 -12 -7 -57 53 -79 103 -3 8 -17 39 -30 68 -23 50
-38 150 -39 254 0 25 -3 44 -7 41 -5 -2 -8 8 -8 22 0 20 4 26 15 22 8 -4 17
-2 20 4 8 12 -14 79 -26 79 -5 0 -9 4 -9 10 0 5 7 7 15 4 8 -4 15 -1 15 6 0 6
5 8 10 5 6 -3 10 -11 10 -16 0 -6 -4 -7 -10 -4 -15 10 -11 -18 6 -40 15 -19
16 -18 12 22 -2 24 1 45 7 48 5 2 -6 3 -26 1 -20 -2 -43 0 -50 5 -8 5 -9 9 -3
9 6 0 17 11 24 25 7 13 21 27 31 30 11 4 16 12 13 23 -5 13 -2 13 11 -3 16
-19 16 -18 10 20 -3 22 -8 50 -11 63 -2 12 0 22 6 22 5 0 10 -8 11 -17 4 -66
8 -86 19 -96 10 -9 11 -7 7 13 -16 68 -19 108 -7 115 6 4 14 4 18 0 4 -4 1
-10 -5 -12 -7 -3 -13 -14 -13 -26 0 -18 2 -19 10 -7 8 11 9 7 5 -15 -3 -16 -2
-24 1 -17 9 20 24 3 24 -29 0 -26 3 -29 30 -29 30 0 30 -1 30 -55 0 -39 4 -55
13 -55 10 0 14 16 13 63 -1 49 2 62 14 62 11 0 16 -13 18 -47 3 -43 5 -48 28
-48 21 0 24 4 24 40 0 36 3 40 25 40 14 0 25 -4 25 -10 0 -5 7 -10 15 -10 8 0
15 6 15 14 0 21 21 31 31 15 4 -7 12 -10 16 -5 4 5 2 11 -4 13 -7 3 -13 13
-13 23 0 10 6 20 13 23 6 2 8 8 4 13 -4 5 -11 3 -16 -4 -6 -9 -13 -9 -34 1
-22 10 -27 19 -27 50 l0 37 50 0 50 0 0 -80 0 -80 30 0 c28 0 30 2 30 40 0 22
-4 40 -10 40 -5 0 -10 18 -10 40 0 22 5 40 10 40 6 0 10 -11 10 -25 0 -25 1
-25 80 -25 64 0 80 -3 80 -15 0 -11 -11 -15 -40 -15 l-40 0 -2 -42 -1 -43 -4
43 c-4 39 -6 42 -34 42 -26 0 -29 -3 -29 -32 0 -18 -3 -43 -6 -55 -6 -21 -3
-23 35 -23 37 0 41 -2 41 -25 0 -21 5 -25 30 -25 28 0 30 2 30 40 0 32 4 40
18 40 10 0 23 -5 30 -12 8 -8 15 -8 27 2 20 17 32 5 15 -15 -10 -12 -10 -19
-2 -27 9 -9 12 -8 12 6 0 15 9 17 78 14 152 -6 242 1 242 17 0 8 5 15 10 15 6
0 10 -18 10 -40 0 -38 2 -40 30 -40 28 0 30 -2 30 -40 0 -22 5 -40 10 -40 6 0
10 18 10 40 0 22 -4 40 -10 40 -5 0 -10 21 -10 48 l0 47 40 0 c22 0 40 -3 40
-7 0 -5 29 -8 65 -8 l65 0 0 41 0 40 46 -7 c34 -5 48 -3 55 7 6 9 9 -7 9 -43
l0 -58 39 0 c22 0 41 4 43 9 2 5 23 11 48 12 42 3 59 12 60 33 0 5 -6 4 -12
-2 -10 -8 -13 -4 -14 13 -2 23 -2 24 19 5 11 -11 23 -18 26 -16 13 8 27 -22
30 -65 2 -44 1 -46 -28 -52 -28 -6 -31 -10 -31 -42 l0 -35 64 0 c61 0 64 1 71
27 3 15 12 31 18 35 9 6 8 11 -3 18 -13 9 -13 11 -1 19 12 8 12 12 2 25 -12
14 -10 16 8 16 14 0 21 -6 21 -20 0 -24 15 -27 24 -4 3 8 10 13 14 10 5 -3 8
11 7 32 -1 20 -3 49 -4 64 -1 25 -3 26 -38 21 -21 -3 -39 -10 -41 -15 -2 -4
-8 -8 -14 -8 -6 0 -8 6 -5 14 3 8 1 17 -6 20 -7 4 -2 4 10 2 12 -2 24 2 27 9
7 19 2 21 -48 17 -44 -4 -60 -16 -33 -25 6 -2 4 -3 -5 -2 -10 2 -18 -1 -18 -6
0 -5 6 -9 13 -9 9 0 9 -2 -1 -8 -7 -5 -11 -15 -9 -23 2 -8 2 -11 0 -6 -3 4
-11 7 -19 7 -20 0 -17 17 7 51 15 21 29 29 50 29 18 0 28 4 24 10 -9 14 -48
13 -63 -2 -9 -9 -12 -9 -12 0 0 7 -5 12 -10 12 -6 0 -8 -11 -4 -27 6 -24 5
-25 -8 -12 -9 7 -13 20 -10 28 4 10 1 12 -8 6 -8 -5 -11 -4 -7 3 4 5 19 9 35
7 15 -1 29 0 32 4 3 3 28 22 55 40 28 19 52 38 55 43 3 4 16 6 28 3 13 -2 20
0 17 6 -4 5 -12 6 -18 2 -7 -4 6 13 28 39 48 55 109 173 136 265 32 109 35
248 8 373 -12 58 -23 115 -23 128 -1 12 -4 22 -8 22 -5 0 -8 5 -8 10 0 16 16
11 36 -12z m-1670 -25 c-3 -4 -6 0 -6 7 0 9 -7 7 -22 -6 l-22 -19 20 27 c15
21 21 23 27 11 5 -8 6 -17 3 -20z m726 14 c-16 -22 -15 -345 2 -432 19 -96 55
-207 70 -217 7 -5 7 -8 0 -8 -11 0 -104 87 -104 98 -1 4 -21 30 -46 57 -25 28
-53 60 -61 72 -8 13 -18 21 -22 19 -4 -3 -6 7 -6 22 1 15 -5 37 -12 50 -12 19
-12 26 -1 40 12 15 11 16 -4 4 -15 -12 -18 -9 -30 30 -7 24 -22 61 -34 84 -17
31 -19 45 -11 60 9 17 9 18 -6 5 -9 -7 -17 -11 -17 -8 0 3 -3 13 -6 21 -5 12
-2 15 12 9 10 -4 15 -2 11 4 -5 7 64 40 103 49 3 0 19 6 35 13 34 15 52 19 78
20 10 1 16 5 12 10 -3 5 3 11 12 13 24 6 36 -1 25 -15z m-2215 -99 c-3 -8 -6
-5 -6 6 -1 11 2 17 5 13 3 -3 4 -12 1 -19z m197 -4 c3 -8 2 -12 -4 -9 -6 3
-10 10 -10 16 0 14 7 11 14 -7z m1212 -16 c3 -4 -1 -5 -10 -4 -8 1 -18 5 -22
8 -3 4 1 5 10 4 8 -1 18 -5 22 -8z m1404 -6 c20 -16 21 -19 6 -31 -9 -8 -47
-16 -85 -19 l-68 -4 -12 32 c-6 18 -11 35 -11 36 0 2 33 4 74 4 56 0 79 -4 96
-18z m-1839 -59 c-12 -20 -14 -14 -5 12 4 9 9 14 11 11 3 -2 0 -13 -6 -23z
m-527 2 c3 -8 0 -14 -7 -12 -7 1 -11 -7 -10 -20 1 -11 -5 -27 -15 -35 -15 -12
-16 -11 -4 4 8 9 11 22 8 27 -4 6 -1 19 6 31 15 24 14 24 22 5z m-466 -20 c-3
-3 -9 2 -12 12 -6 14 -5 15 5 6 7 -7 10 -15 7 -18z m197 -5 c3 -5 1 -10 -4
-10 -6 0 -11 5 -11 10 0 6 2 10 4 10 3 0 8 -4 11 -10z m-20 -39 c1 -10 -3 -17
-9 -15 -6 2 -11 15 -11 29 0 28 18 16 20 -14z m796 16 c-10 -9 -11 -8 -5 6 3
10 9 15 12 12 3 -3 0 -11 -7 -18z m-510 -30 c-10 -9 -11 -8 -5 6 3 10 9 15 12
12 3 -3 0 -11 -7 -18z m263 7 c3 -8 2 -12 -4 -9 -6 3 -10 10 -10 16 0 14 7 11
14 -7z m612 -11 c-4 -4 -12 -1 -19 7 -9 10 -9 11 1 6 7 -4 12 -2 13 6 0 11 2
11 6 0 3 -7 2 -16 -1 -19z m-46 13 c0 -2 -8 -10 -17 -17 -16 -13 -17 -12 -4 4
13 16 21 21 21 13z m-930 -10 c0 -3 -4 -8 -10 -11 -5 -3 -10 -1 -10 4 0 6 5
11 10 11 6 0 10 -2 10 -4z m-304 -46 c0 -12 -4 -16 -9 -11 -5 5 -6 14 -3 20
10 15 12 14 12 -9z m627 13 c-7 -2 -19 -2 -25 0 -7 3 -2 5 12 5 14 0 19 -2 13
-5z m-393 -70 c0 -3 -9 6 -20 20 -11 14 -20 31 -20 39 0 7 9 -2 20 -20 11 -18
20 -35 20 -39z m120 16 c0 -4 -5 -11 -12 -15 -7 -4 -8 -3 -4 5 4 7 -2 20 -16
32 l-23 20 28 -17 c15 -9 27 -20 27 -25z m287 35 c-3 -3 -12 -4 -19 -1 -8 3
-5 6 6 6 11 1 17 -2 13 -5z m50 0 c-3 -3 -12 -4 -19 -1 -8 3 -5 6 6 6 11 1 17
-2 13 -5z m163 -45 c0 -3 -6 -6 -14 -6 -8 0 -11 8 -8 20 4 14 7 16 13 5 5 -7
9 -16 9 -19z m360 25 c0 -8 -19 -13 -24 -6 -3 5 1 9 9 9 8 0 15 -2 15 -3z
m-1131 -30 c3 3 6 -12 5 -32 0 -20 4 -44 10 -52 6 -9 1 -7 -11 3 -13 11 -19
25 -16 35 5 11 3 13 -8 7 -12 -7 -12 -6 -1 7 7 8 11 22 9 29 -2 8 -2 11 0 6 3
-4 8 -5 12 -3z m445 -23 c-3 -3 -15 6 -27 18 l-22 24 27 -19 c14 -10 24 -21
22 -23z m26 25 c-7 -7 -13 -7 -20 0 -6 6 -3 10 10 10 13 0 16 -4 10 -10z
m-170 -6 c-8 -5 -19 -10 -25 -10 -5 0 -3 5 5 10 8 5 20 10 25 10 6 0 3 -5 -5
-10z m40 -21 c0 -5 -9 -9 -20 -9 -11 0 -20 4 -20 10 0 5 7 6 17 3 12 -5 14 -3
8 7 -5 9 -4 11 3 6 7 -4 12 -11 12 -17z m3010 7 c0 -8 -4 -18 -10 -21 -5 -3
-10 3 -10 14 0 12 5 21 10 21 6 0 10 -6 10 -14z m-2652 -21 c-3 -3 -9 2 -12
12 -6 14 -5 15 5 6 7 -7 10 -15 7 -18z m53 2 c-10 -9 -11 -8 -5 6 3 10 9 15
12 12 3 -3 0 -11 -7 -18z m-224 -2 c0 -8 -6 -15 -13 -15 -8 0 -11 6 -8 15 4 8
9 15 13 15 4 0 8 -7 8 -15z m-407 1 c0 -2 -7 -9 -15 -16 -13 -11 -14 -10 -9 4
5 14 24 23 24 12z m68 -9 c8 -10 6 -13 -11 -14 -12 0 -16 1 -9 4 6 3 10 9 6
14 -8 14 2 11 14 -4z m1682 3 c0 -5 -5 -10 -11 -10 -5 0 -7 5 -4 10 3 6 8 10
11 10 2 0 4 -4 4 -10z m-1790 -30 c0 -5 -4 -10 -10 -10 -5 0 -10 5 -10 10 0 6
5 10 10 10 6 0 10 -4 10 -10z m610 -10 c0 -11 -4 -20 -9 -20 -5 0 -7 9 -4 20
3 11 7 20 9 20 2 0 4 -9 4 -20z m-217 3 c-7 -2 -19 -2 -25 0 -7 3 -2 5 12 5
14 0 19 -2 13 -5z m516 -9 c-37 -45 -80 -87 -71 -69 6 11 25 35 42 53 33 33
52 44 29 16z m3755 -24 c-5 -5 -10 3 -11 18 -1 22 0 24 9 8 6 -10 6 -22 2 -26z
m-4467 24 c-3 -3 -12 -4 -19 -1 -8 3 -5 6 6 6 11 1 17 -2 13 -5z m443 -2 c0
-5 -7 -17 -16 -28 -8 -10 -14 -14 -11 -9 2 6 7 18 10 28 7 17 17 23 17 9z
m-670 -23 c0 -6 -4 -7 -10 -4 -5 3 -10 11 -10 16 0 6 5 7 10 4 6 -3 10 -11 10
-16z m277 15 c-3 -3 -12 -4 -19 -1 -8 3 -5 6 6 6 11 1 17 -2 13 -5z m683 -24
c0 -11 -4 -20 -9 -20 -5 0 -7 9 -4 20 3 11 7 20 9 20 2 0 4 -9 4 -20z m-617 3
c-13 -2 -33 -2 -45 0 -13 2 -3 4 22 4 25 0 35 -2 23 -4z m-86 -9 c-3 -3 -12
-4 -19 -1 -8 3 -5 6 6 6 11 1 17 -2 13 -5z m66 -11 c-7 -2 -19 -2 -25 0 -7 3
-2 5 12 5 14 0 19 -2 13 -5z m-283 -23 c6 -11 9 -20 8 -20 -2 0 -11 9 -21 20
-9 11 -13 20 -7 20 5 0 14 -9 20 -20z m75 10 c-3 -5 -14 -10 -23 -9 -14 0 -13
2 3 9 27 11 27 11 20 0z m3965 -3 c0 -2 -10 -12 -22 -23 l-23 -19 19 23 c18
21 26 27 26 19z m-3456 -22 c-4 -8 -8 -15 -10 -15 -2 0 -4 7 -4 15 0 8 4 15
10 15 5 0 7 -7 4 -15z m220 -40 c-4 -8 -8 -15 -10 -15 -2 0 -4 7 -4 15 0 8 4
15 10 15 5 0 7 -7 4 -15z m71 5 c3 -6 -1 -7 -9 -4 -18 7 -21 14 -7 14 6 0 13
-4 16 -10z m-815 -10 c0 -5 6 -7 13 -4 7 2 24 -4 37 -16 13 -11 18 -20 11 -20
-7 0 -9 -5 -5 -11 4 -8 9 -8 17 0 19 19 31 12 13 -8 -10 -11 -15 -26 -11 -33
4 -7 -3 -2 -14 12 -11 14 -18 31 -16 39 3 8 0 11 -9 8 -11 -4 -13 -1 -9 10 5
12 2 15 -10 10 -8 -3 -21 1 -27 9 -9 10 -9 14 -1 14 6 0 11 -4 11 -10z m476
-25 c-7 -19 -17 -19 -42 1 -18 15 -18 15 3 5 30 -15 33 -14 34 12 0 12 3 16 6
9 3 -7 2 -19 -1 -27z m-386 15 c8 -5 11 -10 5 -10 -5 0 -17 5 -25 10 -8 5 -10
10 -5 10 6 0 17 -5 25 -10z m611 -14 c-7 -8 -10 -20 -6 -26 3 -5 1 -10 -4 -10
-6 0 -11 5 -11 10 0 14 23 50 29 45 2 -3 -2 -11 -8 -19z m2076 -1 c4 -14 -106
-84 -143 -90 -31 -6 -64 9 -50 22 5 4 11 2 13 -4 8 -23 20 -14 21 15 0 15 -5
31 -12 35 -7 6 -5 7 6 3 10 -3 36 5 58 18 41 23 99 24 107 1z m-2037 -38 c0
-4 -6 -2 -14 5 -8 7 -12 17 -9 22 5 8 23 -12 23 -27z m-290 -7 c0 -5 -5 -10
-11 -10 -5 0 -7 5 -4 10 3 6 8 10 11 10 2 0 4 -4 4 -10z m1440 0 c8 -5 11 -10
5 -10 -5 0 -17 5 -25 10 -8 5 -10 10 -5 10 6 0 17 -5 25 -10z m90 6 c0 -2 -9
-6 -20 -9 -11 -3 -18 -1 -14 4 5 9 34 13 34 5z m-1851 -39 c0 -9 -2 -9 -6 1
-2 6 -11 12 -19 12 -8 0 -14 5 -14 10 0 7 6 7 20 0 11 -6 20 -16 19 -23z m588
27 c-3 -3 -12 -4 -19 -1 -8 3 -5 6 6 6 11 1 17 -2 13 -5z m-366 -35 c-5 -13
-10 -19 -10 -12 -1 15 10 45 15 40 3 -2 0 -15 -5 -28z m80 16 c5 4 6 -1 3 -9
-9 -24 -24 -19 -23 7 0 12 3 16 6 9 2 -6 9 -10 14 -7z m224 5 c3 -6 -1 -7 -9
-4 -18 7 -21 14 -7 14 6 0 13 -4 16 -10z m1899 1 c14 -22 -51 -111 -81 -111
-7 0 -13 -4 -13 -10 0 -5 -11 -10 -25 -10 -14 0 -25 5 -25 11 0 6 -9 9 -20 6
-11 -3 -20 -1 -20 4 0 5 -7 9 -16 9 -14 0 -14 3 -4 15 9 11 9 15 1 15 -26 0 9
37 46 48 99 29 149 37 157 23z m-2404 -30 c-13 -26 -22 -26 -45 -1 -10 11 -15
20 -10 20 4 0 13 -8 20 -17 12 -15 14 -15 26 5 17 27 25 21 9 -7z m242 17 c-5
-7 -12 -22 -14 -33 -2 -11 -6 -15 -10 -10 -8 14 9 55 23 55 8 0 8 -4 1 -12z
m3288 2 c-8 -5 -22 -9 -30 -9 -10 0 -8 3 5 9 27 12 43 12 25 0z m-3030 -15
c19 -23 -1 -40 -29 -26 -12 7 -21 17 -21 23 0 6 9 3 20 -7 11 -10 23 -15 27
-12 4 4 -2 14 -13 22 -10 8 -14 15 -8 15 6 0 17 -7 24 -15z m-474 -78 c-1 -20
-8 -43 -14 -49 -12 -12 -14 -7 -11 18 0 4 -5 11 -13 16 -9 7 -7 8 7 4 17 -5
20 0 22 27 2 25 0 29 -8 17 -9 -12 -10 -12 -5 3 3 10 6 24 7 30 0 7 4 3 8 -8
5 -11 8 -37 7 -58z m228 48 c-4 -8 -8 -15 -10 -15 -2 0 -4 7 -4 15 0 8 4 15
10 15 5 0 7 -7 4 -15z m-50 -27 c1 -13 7 -22 14 -21 6 2 9 -4 6 -12 -4 -8 -10
-12 -16 -9 -5 3 -9 0 -7 -7 1 -8 1 -23 0 -33 -1 -16 -4 -17 -13 -8 -9 9 -9 15
-2 20 5 4 9 29 8 55 -1 47 7 60 10 15z m252 24 c8 -5 4 -13 -13 -26 -25 -18
-25 -18 -14 1 6 11 7 23 4 27 -9 8 9 7 23 -2z m1436 -37 c2 -11 10 -19 16 -17
14 2 15 -8 3 -27 -7 -11 -13 -5 -25 24 -9 20 -16 42 -16 48 0 17 17 -5 22 -28z
m-1807 15 c-3 -5 -15 -10 -26 -10 -10 0 -19 5 -19 10 0 6 12 10 26 10 14 0 23
-4 19 -10z m326 -7 c-7 -13 -5 -20 7 -29 14 -11 15 -15 4 -26 -11 -11 -12 -10
-7 3 4 10 0 19 -10 23 -13 4 -14 10 -5 26 6 11 13 20 16 20 3 0 1 -8 -5 -17z
m256 -5 c-3 -8 -6 -5 -6 6 -1 11 2 17 5 13 3 -3 4 -12 1 -19z m540 -40 c-2
-13 -4 -3 -4 22 0 25 2 35 4 23 2 -13 2 -33 0 -45z m2153 52 c8 -5 11 -10 5
-10 -5 0 -17 5 -25 10 -8 5 -10 10 -5 10 6 0 17 -5 25 -10z m68 2 c8 -6 1 -14
-24 -26 -20 -9 -38 -15 -41 -13 -2 2 10 10 27 17 23 9 28 15 18 21 -7 5 -8 9
-3 9 6 0 16 -4 23 -8z m-2535 -19 c-13 -2 -33 -2 -45 0 -13 2 -3 4 22 4 25 0
35 -2 23 -4z m1069 -17 c6 4 8 3 5 -3 -8 -13 20 -26 36 -16 7 3 8 2 4 -3 -11
-11 -58 -13 -51 -2 3 5 -2 11 -10 14 -9 3 -16 14 -16 23 1 14 2 14 11 -2 6 -9
15 -14 21 -11z m-1897 3 c11 -17 -1 -21 -15 -4 -8 9 -8 15 -2 15 6 0 14 -5 17
-11z m335 -30 c0 -5 -4 -9 -10 -9 -5 0 -10 5 -10 11 0 5 -5 7 -12 3 -7 -4 -8
-3 -4 4 7 12 36 5 36 -9z m197 -1 c-3 -8 -6 -5 -6 6 -1 11 2 17 5 13 3 -3 4
-12 1 -19z m2726 7 c4 -8 3 -16 -1 -19 -4 -3 -9 4 -9 15 -2 23 3 25 10 4z
m-3189 -22 c6 -15 8 -15 16 -3 8 13 10 13 10 0 0 -9 -4 -20 -9 -25 -5 -6 -5
-19 -1 -30 8 -19 9 -19 9 2 1 21 21 44 21 24 0 -22 -23 -60 -33 -54 -6 4 -8 0
-4 -10 3 -10 2 -17 -3 -17 -6 0 -10 -6 -10 -14 0 -8 -5 -18 -12 -22 -7 -4 -8
-3 -4 4 4 7 1 12 -8 12 -18 0 -19 2 -10 24 5 14 9 14 22 4 13 -11 15 -10 9 5
-3 9 -3 17 2 17 11 0 6 42 -8 68 -13 25 -14 32 -2 32 5 0 12 -8 15 -17z m-48
-38 c-8 -25 -10 -45 -5 -45 5 0 9 5 9 11 0 5 5 7 10 4 7 -4 9 3 5 22 -5 21 -4
24 4 13 16 -22 13 -38 -8 -59 -35 -35 -49 10 -23 72 18 42 23 32 8 -18z m280
33 c-4 -26 -18 -40 -29 -29 -7 7 -6 15 3 26 15 18 29 20 26 3z m458 4 c-6 -4
-14 -14 -17 -22 -4 -10 -6 -8 -6 8 -1 15 5 22 17 22 10 0 13 -3 6 -8z m-767
-24 c-3 -8 -6 -5 -6 6 -1 11 2 17 5 13 3 -3 4 -12 1 -19z m2027 8 l27 -14 -26
-6 c-14 -4 -33 -2 -43 4 -13 8 -11 9 11 4 33 -7 36 3 5 16 -13 5 -18 9 -12 9
7 1 24 -5 38 -13z m-2035 -46 c0 -10 -3 -8 -9 5 -12 27 -12 43 0 25 5 -8 9
-22 9 -30z m2097 22 c-13 -3 -15 -6 -7 -12 10 -5 10 -17 3 -44 -9 -30 -8 -36
5 -36 10 0 13 6 8 18 -5 13 -3 14 6 5 14 -14 6 -29 -21 -36 -23 -6 -24 3 -10
53 9 33 8 34 -6 15 -16 -20 -16 -20 -9 2 5 19 3 22 -11 16 -15 -6 -15 -4 2 13
11 12 27 18 39 15 19 -5 19 -5 1 -9z m-1806 -28 c0 -8 -5 -14 -12 -14 -6 0 -8
3 -5 6 3 4 1 16 -5 28 -10 19 -10 20 5 7 10 -7 17 -20 17 -27z m1898 0 c12 0
22 4 22 9 0 6 2 8 5 5 3 -2 -5 -22 -16 -44 l-21 -39 6 33 c3 18 1 32 -4 32 -6
0 -10 -6 -10 -14 0 -34 -16 -22 -17 12 0 20 2 30 6 22 3 -8 16 -15 29 -16z
m588 -1 c-10 -10 -19 5 -10 18 6 11 8 11 12 0 2 -7 1 -15 -2 -18z m-2512 -7
c-8 -20 12 -28 26 -11 13 16 70 21 70 7 0 -5 -10 -14 -22 -20 -13 -6 -17 -11
-10 -11 6 -1 12 -10 12 -22 0 -11 -4 -18 -9 -15 -5 4 -7 -4 -4 -15 6 -21 7
-21 21 -3 13 16 14 17 9 2 -4 -12 -1 -18 8 -18 8 0 15 -8 15 -19 0 -22 26 -31
93 -31 30 0 46 -4 42 -10 -3 -5 -35 -10 -71 -10 -57 0 -64 -2 -64 -20 0 -17 7
-20 39 -20 22 0 41 4 43 8 5 13 77 22 83 11 4 -5 12 -9 18 -9 7 0 4 5 -5 11
-10 5 -18 15 -18 21 0 6 5 7 13 2 7 -5 4 -1 -7 9 -25 23 -13 34 42 39 45 4 51
-2 27 -25 -8 -8 -11 -18 -7 -22 4 -5 -1 -5 -11 -2 -10 4 -16 3 -14 -1 3 -4 1
-17 -4 -29 -6 -16 -14 -21 -31 -18 -12 3 -25 -1 -29 -7 -11 -17 -193 -13 -257
5 -56 16 -108 45 -98 54 3 3 13 0 21 -7 12 -10 18 -11 28 -1 9 10 8 11 -7 5
-15 -6 -18 -4 -13 9 6 15 -15 42 -25 31 -3 -2 -8 2 -11 10 -4 10 -1 13 9 9 10
-4 12 0 7 13 -6 17 -5 17 10 5 18 -14 24 -2 7 15 -7 7 -5 17 5 30 13 16 14 17
9 1 -4 -10 -3 -17 2 -16 5 1 11 0 14 -1 3 -1 23 -3 45 -5 22 -1 32 0 23 2 -22
6 -24 23 -2 23 8 0 12 5 9 11 -5 7 -15 5 -32 -6 -14 -9 -28 -14 -31 -10 -4 3
0 10 7 14 7 5 10 14 6 20 -9 16 2 44 14 36 6 -3 8 -12 5 -19z m1736 20 c0 -3
-4 -8 -10 -11 -5 -3 -10 -1 -10 4 0 6 5 11 10 11 6 0 10 -2 10 -4z m-1560 -56
c0 -22 -3 -40 -7 -40 -5 0 -18 -3 -30 -6 -21 -6 -23 -3 -23 40 0 44 1 46 30
46 28 0 30 -2 30 -40z m160 2 c0 -21 -5 -43 -12 -50 -15 -15 -58 -16 -58 -2 0
6 -16 10 -35 10 -32 0 -35 2 -35 30 0 28 2 30 40 30 22 0 40 5 40 10 0 6 14
10 30 10 28 0 30 -2 30 -38z m53 26 c4 -10 8 -9 17 2 9 11 13 12 17 2 2 -6 10
-9 16 -5 21 13 47 10 47 -5 0 -10 -7 -12 -25 -8 -19 5 -23 3 -19 -9 4 -8 1
-15 -5 -15 -6 0 -11 7 -11 15 0 8 -4 15 -10 15 -12 0 -13 -26 -1 -48 6 -12 3
-29 -9 -55 -10 -20 -14 -37 -8 -37 5 0 3 -7 -6 -15 -8 -8 -21 -15 -28 -15 -8
0 -19 -5 -26 -12 -8 -8 -12 -8 -12 -1 0 10 23 25 42 27 3 1 10 5 15 10 5 5 3
6 -4 2 -7 -4 -13 -2 -13 3 0 6 4 11 9 11 5 0 8 15 7 33 -1 26 2 31 18 29 18
-3 18 -2 2 13 -9 9 -16 25 -16 36 0 10 -5 19 -11 19 -7 0 -9 -11 -6 -27 6 -35
-1 -53 -22 -52 -10 0 -11 2 -3 6 6 2 12 17 12 33 0 50 21 79 33 48z m187 -23
c0 -22 8 -44 20 -57 24 -26 25 -37 5 -44 -25 -10 -45 21 -45 70 0 25 -4 46
-10 46 -5 0 -10 5 -10 10 0 6 9 10 20 10 16 0 20 -7 20 -35z m1396 26 c-3 -5
1 -12 10 -15 13 -5 13 -9 -5 -32 -13 -17 -21 -41 -21 -65 0 -37 -2 -39 -30
-39 -28 0 -30 3 -30 34 0 28 4 35 23 38 16 2 23 11 25 33 2 17 8 36 14 43 12
14 22 16 14 3z m601 3 c-3 -3 -12 -4 -19 -1 -8 3 -5 6 6 6 11 1 17 -2 13 -5z
m78 -12 c-9 -9 -65 -9 -65 1 0 5 12 6 26 3 16 -4 23 -3 19 3 -3 7 0 8 10 5 9
-4 13 -9 10 -12z m-1174 -32 c64 0 79 -3 79 -15 0 -11 11 -15 40 -15 22 0 40
-3 40 -8 0 -4 -18 -7 -40 -7 -22 0 -40 3 -40 7 0 5 -36 8 -80 8 -44 0 -80 4
-80 9 0 5 -2 15 -3 23 -2 7 -2 10 0 6 3 -5 40 -8 84 -8z m548 -18 c0 -11 -3
-12 -6 -4 -2 6 -9 12 -14 12 -6 0 -7 -4 -4 -10 3 -5 1 -10 -4 -10 -15 0 -14
27 2 33 17 6 27 -2 26 -21z m-1349 5 c0 -7 -9 -18 -20 -25 -16 -10 -24 -10
-40 0 -33 21 -24 38 20 38 25 0 40 -5 40 -13z m560 -1 c0 -8 3 -16 8 -19 4 -2
1 -2 -6 0 -8 1 -29 3 -48 3 -24 0 -34 5 -34 15 0 11 11 15 40 15 28 0 40 -4
40 -14z m3699 -295 c-29 -89 -39 -97 -39 -28 0 31 -5 87 -12 125 l-11 68 39
74 39 75 3 -124 c2 -105 -1 -134 -19 -190z m-3034 289 c3 -5 1 -10 -4 -10 -6
0 -11 5 -11 10 0 6 2 10 4 10 3 0 8 -4 11 -10z m-580 -10 c-3 -5 -12 -10 -18
-10 -7 0 -6 4 3 10 19 12 23 12 15 0z m-195 -40 c0 -22 -4 -40 -10 -40 -5 0
-10 18 -10 40 0 22 5 40 10 40 6 0 10 -18 10 -40z m-450 -2 c0 -16 -3 -19 -11
-11 -6 6 -8 16 -5 22 11 17 16 13 16 -11z m-480 2 c0 -5 -7 -10 -15 -10 -8 0
-15 5 -15 10 0 6 7 10 15 10 8 0 15 -4 15 -10z m1975 -10 c3 -5 1 -10 -4 -10
-6 0 -11 5 -11 10 0 6 2 10 4 10 3 0 8 -4 11 -10z m-883 -12 c-9 -9 -15 -9
-24 0 -9 9 -7 12 12 12 19 0 21 -3 12 -12z m108 -8 c0 -5 -18 -10 -40 -10 -22
0 -40 -4 -40 -10 0 -5 -18 -10 -40 -10 -22 0 -40 5 -40 10 0 6 18 10 40 10 22
0 40 5 40 10 0 6 18 10 40 10 22 0 40 -4 40 -10z m770 -45 c0 -38 -3 -45 -20
-45 -17 0 -20 7 -20 39 0 35 8 48 33 50 4 1 7 -19 7 -44z m-1772 -91 c18 -20
32 -43 31 -52 0 -12 -3 -10 -9 6 -5 12 -12 22 -14 22 -3 0 -3 -7 0 -15 4 -8 1
-15 -5 -15 -6 0 -11 11 -11 25 0 14 -9 34 -20 45 -11 11 -16 20 -12 20 5 0 23
-16 40 -36z m4457 -314 c-4 -157 -8 -286 -10 -288 -1 -1 -30 10 -65 25 l-62
27 6 75 c12 136 35 254 70 363 19 59 37 112 42 119 20 34 26 -53 19 -321z
m-4455 -120 c0 -5 -2 -10 -4 -10 -3 0 -8 5 -11 10 -3 6 -1 10 4 10 6 0 11 -4
11 -10z m4826 -624 c38 -92 68 -224 78 -336 l5 -65 -35 70 c-19 39 -43 99 -54
135 -16 56 -50 251 -50 291 0 27 21 -8 56 -95z m-694 -103 c-6 -10 -27 -34
-48 -53 l-37 -35 44 56 c43 55 61 69 41 32z m1698 -122 c-1 -11 -50 50 -50 62
0 6 11 -4 25 -23 14 -19 25 -36 25 -39z m-1859 -60 c-106 -123 -342 -331 -401
-353 -12 -5 -224 -170 -240 -188 -12 -12 -197 -158 -220 -173 l-26 -17 -37 65
c-20 35 -37 69 -37 74 0 12 71 51 92 51 27 0 469 230 568 296 68 44 147 110
225 186 66 65 122 118 123 118 2 0 -19 -26 -47 -59z m-958 -682 l36 -66 -33
-16 c-55 -26 -118 -31 -179 -13 -67 20 -84 36 -59 59 33 30 186 117 193 109 3
-4 22 -37 42 -73z m-4119 -111 c-15 -24 -43 -64 -62 -90 -34 -45 -37 -47 -54
-31 -10 9 -17 20 -16 25 3 8 148 138 155 138 2 0 -9 -19 -23 -42z m7403 -15
c-3 -10 -5 -4 -5 12 0 17 2 24 5 18 2 -7 2 -21 0 -30z m-4227 -90 c-18 -74
-37 -115 -69 -153 -79 -93 -213 -241 -248 -276 -60 -58 -98 -67 -235 -54 -62
5 -139 11 -171 13 -43 3 -64 10 -79 25 -20 19 -21 27 -12 89 l9 68 66 7 c37 3
76 11 86 17 11 5 62 17 114 25 195 32 230 49 371 186 48 46 157 119 179 120 3
0 -2 -30 -11 -67z m203 40 c-7 -2 -19 -2 -25 0 -7 3 -2 5 12 5 14 0 19 -2 13
-5z m117 -13 c0 -5 -4 -10 -10 -10 -5 0 -10 5 -10 10 0 6 5 10 10 10 6 0 10
-4 10 -10z m3917 -52 c-3 -8 -6 -5 -6 6 -1 11 2 17 5 13 3 -3 4 -12 1 -19z
m-59 -379 c-6 -16 -12 -28 -14 -26 -5 5 13 57 20 57 3 0 0 -14 -6 -31z m-3509
-133 c-2 -2 -60 -27 -129 -55 -129 -52 -203 -74 -280 -85 -37 -5 -30 -1 40 25
95 34 350 117 364 118 5 1 7 -1 5 -3z m-5074 -16 c-3 -5 -12 -10 -18 -10 -7 0
-6 4 3 10 19 12 23 12 15 0z m5106 -137 c-12 -20 -14 -14 -5 12 4 9 9 14 11
11 3 -2 0 -13 -6 -23z m-394 -119 c-3 -3 -12 -4 -19 -1 -8 3 -5 6 6 6 11 1 17
-2 13 -5z m589 -50 c18 -14 18 -14 -6 -3 -31 14 -36 19 -24 19 6 0 19 -7 30
-16z m-819 -43 c23 -16 44 -27 48 -23 3 3 3 -1 0 -9 -5 -13 2 -15 50 -11 63 5
62 7 39 -82 -10 -35 -17 -106 -18 -166 -1 -98 1 -109 28 -160 33 -63 46 -174
26 -225 l-11 -29 -21 32 c-11 17 -25 29 -31 25 -6 -3 -7 -1 -3 6 4 6 2 22 -6
34 -14 22 -17 92 -5 104 4 3 1 13 -6 21 -10 13 -9 15 8 8 17 -6 18 -5 7 6 -11
11 -16 10 -26 -4 -7 -10 -18 -18 -25 -18 -6 0 -11 -4 -11 -10 0 -5 -7 -10 -16
-10 -9 0 -12 -5 -8 -12 4 -6 3 -8 -4 -5 -12 8 -42 -2 -42 -14 0 -4 8 -6 18 -3
14 5 14 4 2 -4 -9 -7 -18 -7 -26 -1 -13 11 -38 -13 -26 -26 4 -5 1 -5 -7 0 -7
4 -16 4 -20 -1 -16 -22 -70 -42 -110 -41 -40 2 -45 5 -53 32 -12 40 0 262 19
355 17 85 29 111 90 198 52 73 76 79 140 33z m-197 -43 c-67 -106 -92 -199
-97 -368 -5 -166 -7 -180 -27 -159 -11 11 -12 39 -5 135 8 125 28 227 60 301
24 57 86 153 99 153 5 0 -8 -28 -30 -62z m430 26 c0 -8 -19 -13 -24 -6 -3 5 1
9 9 9 8 0 15 -2 15 -3z m-4943 -136 c-3 -8 -6 -5 -6 6 -1 11 2 17 5 13 3 -3 4
-12 1 -19z m14 -21 c-10 -9 -11 -8 -5 6 3 10 9 15 12 12 3 -3 0 -11 -7 -18z
m96 -49 c-3 -7 -5 -2 -5 12 0 14 2 19 5 13 2 -7 2 -19 0 -25z m190 -20 c-3 -8
-6 -5 -6 6 -1 11 2 17 5 13 3 -3 4 -12 1 -19z m-271 -87 c-4 -5 0 -12 6 -14 8
-3 6 -6 -4 -6 -18 -1 -24 10 -11 22 9 10 15 8 9 -2z m-7 -76 c0 -5 -4 -3 -9 5
-5 8 -9 22 -9 30 0 16 17 -16 18 -35z m188 13 c-3 -8 -6 -5 -6 6 -1 11 2 17 5
13 3 -3 4 -12 1 -19z m113 -13 c0 -5 -5 -3 -10 5 -5 8 -10 20 -10 25 0 6 5 3
10 -5 5 -8 10 -19 10 -25z m-332 -15 c-7 -10 -14 -18 -15 -16 -6 6 9 36 18 36
5 0 4 -9 -3 -20z m32 -7 c-1 -5 -8 -19 -16 -33 -8 -14 -13 -17 -10 -7 3 10 6
25 6 33 0 8 5 14 10 14 6 0 10 -3 10 -7z m307 -50 c-3 -10 -5 -4 -5 12 0 17 2
24 5 18 2 -7 2 -21 0 -30z m-296 0 c-12 -20 -14 -14 -5 12 4 9 9 14 11 11 3
-2 0 -13 -6 -23z m274 17 c3 -5 1 -10 -4 -10 -6 0 -11 5 -11 10 0 6 2 10 4 10
3 0 8 -4 11 -10z m-88 -42 c-3 -7 -5 -2 -5 12 0 14 2 19 5 13 2 -7 2 -19 0
-25z m0 -70 c-2 -13 -4 -5 -4 17 -1 22 1 32 4 23 2 -10 2 -28 0 -40z m136 12
c3 -11 1 -18 -3 -15 -5 3 -12 -11 -16 -30 -3 -20 -9 -34 -12 -31 -4 5 17 96
23 96 2 0 5 -9 8 -20z m4424 -12 c-3 -8 -6 -5 -6 6 -1 11 2 17 5 13 3 -3 4
-12 1 -19z m-4757 -28 c0 -5 -2 -10 -4 -10 -3 0 -8 5 -11 10 -3 6 -1 10 4 10
6 0 11 -4 11 -10z m217 -37 c-3 -10 -5 -4 -5 12 0 17 2 24 5 18 2 -7 2 -21 0
-30z m118 17 c3 -5 1 -10 -4 -10 -6 0 -11 5 -11 10 0 6 2 10 4 10 3 0 8 -4 11
-10z m4445 -23 c0 -5 -4 -5 -10 -2 -5 3 -10 14 -10 23 0 15 2 15 10 2 5 -8 10
-19 10 -23z m-4786 -3 c3 -8 2 -12 -4 -9 -6 3 -10 10 -10 16 0 14 7 11 14 -7z
m4544 -49 l-1 -40 -6 40 c-5 32 -10 40 -26 38 -20 -1 -20 -1 -1 13 26 18 36 3
34 -51z m46 57 c2 -4 -5 -9 -17 -9 -17 -2 -19 0 -7 7 18 12 18 12 24 2z
m-4526 -33 c12 -19 11 -19 -8 -9 -11 6 -20 15 -20 20 0 17 15 11 28 -11z m145
-1 c4 -12 2 -27 -2 -32 -5 -6 -11 -22 -14 -36 -2 -14 -4 1 -3 32 1 60 9 75 19
36z m-179 -27 c-4 -3 -9 0 -11 7 -3 6 -10 9 -15 6 -7 -4 -8 -2 -4 5 6 9 11 9
22 0 8 -6 12 -15 8 -18z m213 -3 c-3 -8 -6 -5 -6 6 -1 11 2 17 5 13 3 -3 4
-12 1 -19z m94 -15 c-12 -20 -14 -14 -5 12 4 9 9 14 11 11 3 -2 0 -13 -6 -23z
m-243 -3 c4 -12 3 -13 -10 -3 -8 7 -17 10 -20 7 -3 -3 -9 -1 -12 4 -3 5 4 9
16 8 12 0 24 -8 26 -16z m4292 -6 c0 -8 -4 -12 -10 -9 -5 3 -10 13 -10 21 0 8
5 12 10 9 6 -3 10 -13 10 -21z m380 -24 c0 -5 -5 -10 -11 -10 -5 0 -7 5 -4 10
3 6 8 10 11 10 2 0 4 -4 4 -10z m-4589 -17 c13 -15 12 -15 -8 -4 -24 12 -29
21 -14 21 5 0 15 -7 22 -17z m59 -53 c5 0 11 12 13 28 5 29 0 -35 -6 -80 -2
-18 1 -28 9 -28 20 0 35 -60 24 -95 -10 -29 -10 -29 -6 -3 2 15 -1 25 -5 22
-5 -3 -9 -21 -9 -40 0 -38 15 -38 30 0 6 13 9 15 9 6 1 -17 -38 -100 -40 -85
-1 6 -5 -1 -10 -15 -5 -15 -6 10 -2 65 3 50 10 96 15 103 8 8 6 12 -5 12 -10
0 -17 -11 -20 -32 -2 -18 -5 -3 -5 34 -1 37 -6 78 -12 92 -5 14 -6 41 -2 58
l7 33 3 -37 c2 -21 7 -38 12 -38z m4154 31 c-4 -17 -9 -30 -11 -27 -3 2 -2 19
2 36 9 41 17 33 9 -9z m-4014 -35 c-7 -7 -10 4 -9 30 1 39 1 39 10 9 5 -18 5
-33 -1 -39z m-210 34 c0 -5 -2 -10 -4 -10 -3 0 -8 5 -11 10 -3 6 -1 10 4 10 6
0 11 -4 11 -10z m187 -22 c-3 -8 -6 -5 -6 6 -1 11 2 17 5 13 3 -3 4 -12 1 -19z
m-158 -11 c0 -9 -2 -8 -6 1 -2 6 -10 9 -15 6 -7 -4 -8 -2 -4 5 9 13 26 5 25
-12z m4343 -27 c4 -46 -6 -41 -15 8 -4 17 -3 32 2 32 5 0 11 -18 13 -40z m18
3 c-11 -17 -11 -17 -6 0 3 10 6 24 7 30 0 9 2 9 5 0 3 -7 0 -20 -6 -30z m214
21 c3 -8 2 -12 -4 -9 -6 3 -10 10 -10 16 0 14 7 11 14 -7z m-4503 -30 c-9 -28
-9 -29 -10 -3 -1 14 2 29 6 32 11 12 13 2 4 -29z m4146 -16 c-2 -13 -4 -5 -4
17 -1 22 1 32 4 23 2 -10 2 -28 0 -40z m283 12 c0 -5 -5 -10 -11 -10 -5 0 -7
5 -4 10 3 6 8 10 11 10 2 0 4 -4 4 -10z m-4483 -37 c-3 -10 -5 -4 -5 12 0 17
2 24 5 18 2 -7 2 -21 0 -30z m155 7 c-2 -16 -6 -30 -8 -30 -2 0 -4 14 -4 30 0
17 4 30 8 30 5 0 7 -13 4 -30z m4368 21 c0 -5 -7 -16 -15 -25 -8 -8 -15 -21
-15 -28 0 -8 -7 -23 -16 -34 -15 -18 -15 -18 -5 3 6 12 11 31 11 42 0 12 5 21
10 21 6 0 10 7 10 15 0 8 5 15 10 15 6 0 10 -4 10 -9z m-50 -31 c0 -5 -2 -10
-4 -10 -3 0 -8 5 -11 10 -3 6 -1 10 4 10 6 0 11 -4 11 -10z m-4302 -72 c0 -53
-2 -58 -9 -33 -8 26 -3 95 6 95 2 0 3 -28 3 -62z m22 -72 c-4 -21 -7 -6 -7 44
0 63 1 68 7 31 4 -24 4 -58 0 -75z m4138 16 c5 -31 30 -27 35 6 2 15 5 1 6
-30 0 -32 6 -58 11 -58 6 0 9 -17 9 -37 -1 -28 -3 -31 -6 -13 -3 14 -9 29 -14
34 -5 6 -9 23 -9 38 0 15 -5 27 -11 26 -6 -2 -20 12 -30 30 -13 22 -15 32 -7
30 7 -3 14 -14 16 -26z m-111 -16 c-3 -8 -3 -17 1 -20 3 -4 7 -21 8 -39 0 -18
4 -46 8 -64 5 -20 3 -39 -4 -50 -7 -12 -10 -13 -7 -3 3 8 -2 44 -9 80 -17 80
-17 110 -3 110 6 0 9 -6 6 -14z m-4128 -26 c-10 -28 -29 -42 -29 -20 0 8 30
50 37 50 1 0 -3 -13 -8 -30z m4308 -12 c-3 -7 -5 -2 -5 12 0 14 2 19 5 13 2
-7 2 -19 0 -25z m32 25 c0 -5 -4 -17 -9 -28 -8 -18 -9 -17 -9 8 -1 15 4 27 9
27 6 0 10 -3 9 -7z m-99 -46 c0 -18 -2 -19 -10 -7 -13 20 -13 43 0 35 6 -3 10
-16 10 -28z m-4153 1 c-3 -8 -6 -5 -6 6 -1 11 2 17 5 13 3 -3 4 -12 1 -19z
m18 -24 c-17 -34 -20 -18 -4 23 6 15 13 23 15 17 3 -6 -2 -24 -11 -40z m4242
-26 c-2 -13 -4 -5 -4 17 -1 22 1 32 4 23 2 -10 2 -28 0 -40z m-24 7 c-4 -23
-2 -35 6 -35 6 0 11 -7 11 -16 0 -8 4 -13 9 -10 4 3 18 -5 30 -18 20 -21 21
-25 7 -39 -25 -24 -19 -29 12 -10 23 15 25 15 14 1 -10 -13 -10 -17 4 -22 9
-3 20 -4 25 -1 5 4 6 -2 2 -11 -5 -14 -3 -16 12 -11 18 8 48 -10 40 -23 -3 -4
3 -14 12 -21 15 -12 16 -12 10 4 -6 15 -4 16 13 7 25 -13 26 -30 3 -31 -17 -1
-17 -2 0 -6 17 -5 25 -43 8 -43 -13 0 -90 36 -126 59 -39 25 -45 25 -45 1 0
-11 7 -20 15 -20 8 0 15 -5 15 -11 0 -5 -6 -7 -12 -3 -9 6 -9 3 1 -9 17 -21 7
-49 -14 -41 -13 5 -15 21 -14 79 1 40 -1 77 -5 83 -3 6 -2 13 3 17 8 4 9 37 2
65 0 2 -8 -6 -17 -19 -11 -15 -23 -21 -35 -18 -12 3 -19 0 -19 -9 0 -17 22
-18 38 -2 9 9 12 7 12 -11 0 -18 -4 -21 -22 -16 -20 5 -21 4 -5 -5 9 -6 17
-20 17 -30 0 -10 4 -21 9 -25 6 -3 4 -16 -4 -32 -9 -17 -12 -43 -8 -76 4 -35
3 -48 -5 -43 -6 3 -13 -2 -15 -11 -2 -10 -3 -4 0 12 7 61 1 119 -17 158 -13
26 -17 50 -13 70 8 44 22 69 34 61 7 -4 8 7 4 30 -4 20 -5 43 -1 51 10 27 15
16 9 -20z m-66 -7 c-3 -8 -6 -5 -6 6 -1 11 2 17 5 13 3 -3 4 -12 1 -19z m0
-60 c-3 -7 -5 -2 -5 12 0 14 2 19 5 13 2 -7 2 -19 0 -25z m20 0 c-3 -7 -5 -2
-5 12 0 14 2 19 5 13 2 -7 2 -19 0 -25z m-100 -20 c-3 -7 -5 -2 -5 12 0 14 2
19 5 13 2 -7 2 -19 0 -25z m-4137 -24 c0 -8 -4 -12 -10 -9 -5 3 -10 10 -10 16
0 5 5 9 10 9 6 0 10 -7 10 -16z m4227 -6 c-3 -8 -6 -5 -6 6 -1 11 2 17 5 13 3
-3 4 -12 1 -19z m-78 -67 c8 -5 9 -19 3 -47 l-9 -39 -8 53 c-4 29 -11 54 -15
57 -4 2 -5 17 -2 32 6 27 6 26 13 -11 3 -21 11 -41 18 -45z m3 54 c3 -13 1
-22 -3 -19 -9 5 -13 44 -5 44 2 0 6 -11 8 -25z m105 -127 c-3 -7 -5 -2 -5 12
0 14 2 19 5 13 2 -7 2 -19 0 -25z m283 12 c0 -5 -2 -10 -4 -10 -3 0 -8 5 -11
10 -3 6 -1 10 4 10 6 0 11 -4 11 -10z m25 -20 c-3 -5 -16 -10 -28 -9 -20 1
-20 2 3 9 14 4 26 8 28 9 2 1 0 -3 -3 -9z m-395 -20 c0 -11 -7 -20 -15 -20
-13 0 -13 3 -3 20 7 11 14 20 15 20 2 0 3 -9 3 -20z m480 -41 c0 -11 -26 -5
-44 11 -13 10 -14 15 -4 21 12 8 48 -16 48 -32z m-469 -11 c1 -26 1 -68 -2
-148 -1 -45 -3 -49 -8 -25 -4 17 -6 48 -6 70 1 24 -4 44 -12 50 -9 7 -11 20
-7 43 7 36 33 44 35 10z m249 -8 c0 -11 -7 -20 -15 -20 -8 0 -15 9 -15 20 0
11 7 20 15 20 8 0 15 -9 15 -20z m-4282 -55 c-3 -3 -9 2 -12 12 -6 14 -5 15 5
6 7 -7 10 -15 7 -18z"/>
<path d="M9398 11093 c7 -3 16 -2 19 1 4 3 -2 6 -13 5 -11 0 -14 -3 -6 -6z"/>
<path d="M9176 10563 c-6 -14 -5 -15 5 -6 7 7 10 15 7 18 -3 3 -9 -2 -12 -12z"/>
<path d="M10300 10535 c14 -15 48 -44 75 -65 28 -21 64 -51 82 -67 17 -15 46
-39 64 -53 159 -119 380 -364 370 -410 -1 -8 1 -11 5 -7 9 9 68 -111 90 -183
29 -93 64 -312 79 -490 8 -97 17 -153 26 -170 13 -23 11 54 -6 235 -34 371
-96 563 -236 740 -81 103 -148 163 -508 453 -51 41 -69 48 -41 17z"/>
<path d="M8118 11293 c7 -3 16 -2 19 1 4 3 -2 6 -13 5 -11 0 -14 -3 -6 -6z"/>
<path d="M8148 5111 c11 -7 10 -10 -3 -15 -22 -8 -27 -8 -21 3 3 4 -7 6 -22 3
-17 -3 -21 -7 -12 -10 8 -3 17 -8 20 -12 3 -4 16 -11 30 -15 23 -7 24 -7 10
10 -13 16 -13 18 0 13 19 -6 25 -35 8 -41 -7 -2 1 -2 17 1 17 2 37 8 45 14 11
6 8 7 -9 2 -14 -4 -21 -2 -17 4 3 5 -4 13 -17 17 -13 4 -17 8 -9 12 16 6 5 23
-16 23 -13 0 -14 -2 -4 -9z"/>
<path d="M8055 5080 c4 -7 1 -10 -6 -9 -8 1 -23 -1 -34 -5 -11 -5 -26 -10 -33
-12 -7 -2 -10 -9 -6 -15 4 -8 0 -9 -15 -4 -11 3 -31 3 -43 -1 -22 -7 -22 -8 7
-20 35 -15 72 -18 79 -5 3 4 -7 6 -22 5 l-27 -4 28 11 c21 8 32 8 40 0 6 -6
16 -11 22 -11 5 0 3 5 -5 11 -12 8 -9 10 13 6 15 -2 27 0 27 4 0 5 7 6 15 3
24 -10 17 6 -7 16 -19 8 -16 9 12 4 42 -8 37 0 -14 21 -22 9 -35 11 -31 5z
m-10 -30 c3 -5 2 -10 -4 -10 -5 0 -13 5 -16 10 -3 6 -2 10 4 10 5 0 13 -4 16
-10z m-98 -26 c-3 -3 -12 -4 -19 -1 -8 3 -5 6 6 6 11 1 17 -2 13 -5z"/>
<path d="M6656 5071 c-8 -12 20 -22 39 -15 19 8 9 24 -15 24 -10 0 -21 -4 -24
-9z"/>
<path d="M7612 5063 c-6 -2 -10 -8 -8 -11 2 -4 -8 -8 -22 -9 -15 0 -28 -6 -30
-12 -5 -14 -32 -15 -32 -1 0 6 -21 10 -46 10 -31 0 -43 -3 -38 -11 5 -9 -1
-10 -20 -5 -14 3 -26 2 -26 -3 0 -5 12 -12 28 -16 25 -7 25 -8 7 -15 -11 -5
-38 -8 -60 -8 l-40 1 45 7 c28 4 36 8 20 9 -14 1 -37 4 -53 6 -18 2 -25 0 -21
-7 5 -7 0 -9 -14 -6 -13 4 -20 2 -19 -6 1 -6 -8 -10 -22 -8 -14 1 -22 -1 -18
-4 3 -4 23 -8 44 -10 30 -2 34 -1 18 6 -20 10 44 6 109 -7 18 -3 26 -1 22 5
-8 14 47 25 84 17 31 -7 42 -25 14 -25 -9 0 -14 -6 -11 -13 3 -7 -3 -29 -13
-49 l-18 -37 34 2 c18 2 37 7 41 11 4 5 1 7 -8 4 -9 -4 -22 -3 -29 2 -9 6 -7
10 9 15 23 7 28 21 9 28 -8 2 -9 8 -4 13 5 5 11 4 13 -3 5 -13 43 -19 43 -7 0
4 -8 13 -17 20 -12 9 -14 13 -5 14 16 0 42 -24 42 -39 0 -6 5 -11 10 -11 6 0
10 -7 10 -15 0 -8 5 -15 10 -15 13 0 13 13 -1 27 -8 8 -8 13 0 17 6 4 11 18
11 32 0 22 -4 24 -45 24 -25 0 -45 4 -45 9 0 6 25 7 58 4 59 -6 76 -12 54 -20
-10 -4 -10 -8 -1 -19 8 -10 8 -14 0 -14 -22 0 -10 -28 14 -32 13 -3 22 -1 19
3 -3 5 -13 9 -22 9 -15 1 -15 2 2 15 26 20 37 19 29 -1 -5 -14 -1 -15 27 -9
37 8 142 55 123 55 -6 0 -18 7 -26 15 -13 13 -16 13 -21 0 -3 -10 1 -15 12
-15 15 -1 15 -2 -1 -11 -22 -13 -28 -9 -30 20 -1 11 -6 21 -12 21 -23 0 -55
-13 -55 -21 0 -5 12 -6 26 -3 19 5 25 4 20 -5 -8 -13 -45 -14 -65 -2 -16 10
-6 31 15 31 8 0 14 5 14 10 0 6 -2 10 -4 10 -2 0 -12 3 -20 6 -12 4 -15 2 -11
-9 4 -9 -1 -16 -13 -19 -15 -4 -19 0 -19 18 0 13 3 21 8 18 5 -3 9 -1 9 4 0
15 -25 21 -41 11 -8 -5 -21 -8 -29 -8 -10 0 -8 3 5 9 21 9 0 12 -23 3z m162
-105 c36 2 23 -13 -19 -21 -16 -4 -24 -4 -16 0 10 4 8 9 -10 20 -16 10 -17 12
-4 7 11 -4 33 -7 49 -6z"/>
<path d="M6915 5050 c-3 -5 1 -10 9 -10 9 0 16 5 16 10 0 6 -4 10 -9 10 -6 0
-13 -4 -16 -10z"/>
<path d="M6460 4960 c0 -47 4 -80 10 -80 6 0 10 33 10 80 0 47 -4 80 -10 80
-6 0 -10 -33 -10 -80z"/>
<path d="M6888 5023 c7 -3 16 -2 19 1 4 3 -2 6 -13 5 -11 0 -14 -3 -6 -6z"/>
<path d="M5263 5005 c-9 -10 -10 -16 -2 -21 15 -9 36 13 24 25 -6 6 -15 4 -22
-4z"/>
<path d="M5650 5000 c0 -11 7 -20 15 -20 8 0 15 9 15 20 0 11 -7 20 -15 20 -8
0 -15 -9 -15 -20z"/>
<path d="M5920 5000 c0 -19 3 -21 12 -12 9 9 9 15 0 24 -9 9 -12 7 -12 -12z"/>
<path d="M6640 5005 c0 -11 11 -15 40 -15 22 0 40 -4 40 -10 0 -5 18 -10 40
-10 29 0 40 4 40 15 0 11 -11 15 -40 15 -22 0 -40 5 -40 10 0 6 -18 10 -40 10
-29 0 -40 -4 -40 -15z"/>
<path d="M6920 5010 c0 -5 5 -10 10 -10 6 0 10 5 10 10 0 6 -4 10 -10 10 -5 0
-10 -4 -10 -10z"/>
<path d="M7860 5009 c-13 -7 -12 -9 1 -9 9 0 22 -7 29 -15 7 -8 18 -15 24 -14
7 0 6 2 -2 6 -6 2 -10 9 -6 14 3 5 14 4 27 -2 18 -9 20 -9 10 1 -7 7 -20 14
-30 15 -10 0 -23 4 -29 7 -5 4 -16 3 -24 -3z"/>
<path d="M6880 4985 c0 -21 -5 -25 -30 -25 -28 0 -30 -2 -30 -40 0 -38 2 -40
30 -40 28 0 30 2 30 39 0 33 4 40 22 43 20 3 21 4 5 20 -12 12 -14 18 -4 21 7
3 5 6 -5 6 -13 1 -18 -7 -18 -24z"/>
<path d="M5600 4970 c0 -5 -7 -10 -15 -10 -11 0 -15 -11 -15 -40 0 -29 4 -40
15 -40 11 0 15 11 15 40 0 29 4 40 15 40 8 0 15 5 15 10 0 6 -7 10 -15 10 -8
0 -15 -4 -15 -10z"/>
<path d="M5945 4970 c-3 -5 3 -10 15 -10 12 0 18 5 15 10 -3 6 -10 10 -15 10
-5 0 -12 -4 -15 -10z"/>
<path d="M6098 4963 c12 -2 32 -2 45 0 12 2 2 4 -23 4 -25 0 -35 -2 -22 -4z"/>
<path d="M5340 4921 c0 -23 5 -41 10 -41 6 0 10 15 10 34 0 19 -4 38 -10 41
-6 4 -10 -10 -10 -34z"/>
<path d="M6560 4920 c0 -22 5 -40 10 -40 6 0 10 18 10 40 0 22 -4 40 -10 40
-5 0 -10 -18 -10 -40z"/>
<path d="M6620 4920 c0 -33 3 -40 20 -40 17 0 20 7 20 40 0 33 -3 40 -20 40
-17 0 -20 -7 -20 -40z"/>
<path d="M6700 4920 c0 -22 5 -40 10 -40 6 0 10 -7 10 -15 0 -11 11 -15 40
-15 l40 0 0 55 c0 42 -3 55 -15 55 -11 0 -15 -11 -15 -40 0 -36 -2 -40 -25
-40 -22 0 -25 4 -25 40 0 22 -4 40 -10 40 -5 0 -10 -18 -10 -40z"/>
<path d="M7130 4940 c-18 -12 -2 -12 25 0 13 6 15 9 5 9 -8 0 -22 -4 -30 -9z"/>
<path d="M5698 4933 c12 -2 32 -2 45 0 12 2 2 4 -23 4 -25 0 -35 -2 -22 -4z"/>
<path d="M7148 4913 c6 -2 18 -2 25 0 6 3 1 5 -13 5 -14 0 -19 -2 -12 -5z"/>
<path d="M5490 4895 c0 -8 7 -15 15 -15 8 0 15 7 15 15 0 8 -7 15 -15 15 -8 0
-15 -7 -15 -15z"/>
<path d="M7120 4899 c0 -5 10 -9 22 -9 l21 0 -21 -19 c-22 -18 -31 -71 -12
-71 6 0 10 9 10 20 0 15 7 20 29 20 22 0 30 5 33 25 3 13 2 24 -1 23 -3 -1
-13 1 -21 5 -32 12 -60 15 -60 6z"/>
<path d="M7597 4896 c-4 -10 -1 -19 9 -23 21 -8 26 1 11 22 -13 16 -14 16 -20
1z"/>
<path d="M7581 4860 c-9 -5 -4 -7 13 -7 29 0 32 2 13 10 -8 3 -20 2 -26 -3z"/>
<path d="M8790 4850 c0 -25 38 -142 51 -154 21 -22 19 8 -8 88 -27 83 -43 107
-43 66z"/>
<path d="M6830 4855 c0 -2 11 -15 25 -29 l25 -25 0 23 c0 13 -7 27 -16 30 -19
7 -34 8 -34 1z"/>
<path d="M7495 4851 l-30 -7 31 -5 c17 -3 40 -2 49 1 18 6 18 7 1 13 -10 4
-18 6 -19 6 -1 -1 -15 -4 -32 -8z"/>
<path d="M9202 4818 c-25 -15 -36 -17 -46 -9 -16 14 -26 -3 -18 -31 5 -22 18
-23 26 -3 3 8 16 15 29 15 14 0 30 7 37 15 9 11 32 15 82 15 44 0 67 4 63 10
-12 19 -137 10 -173 -12z"/>
<path d="M7451 4809 c-13 -5 -22 -12 -19 -14 3 -3 20 1 39 9 37 17 19 21 -20
5z"/>
<path d="M7310 4790 c0 -5 5 -10 10 -10 6 0 10 5 10 10 0 6 -4 10 -10 10 -5 0
-10 -4 -10 -10z"/>
<path d="M7360 4794 c1 -16 28 -45 34 -36 3 5 -3 17 -14 27 -11 10 -20 14 -20
9z"/>
<path d="M7395 4790 c3 -5 11 -10 16 -10 6 0 7 5 4 10 -3 6 -11 10 -16 10 -6
0 -7 -4 -4 -10z"/>
<path d="M7740 4760 l-25 -8 25 -2 c23 -1 22 -3 -10 -15 l-35 -13 36 2 c21 0
35 4 32 9 -2 4 2 7 9 7 10 0 10 2 -1 9 -11 7 -10 10 5 14 10 2 12 5 4 5 -8 0
-26 -4 -40 -8z"/>
<path d="M7352 4748 c-16 -16 -15 -25 2 -31 9 -4 14 2 14 19 0 28 0 28 -16 12z"/>
<path d="M7605 4734 c-16 -8 -21 -12 -10 -8 11 3 43 10 70 14 49 7 49 8 10 8
-22 1 -53 -6 -70 -14z"/>
<path d="M7648 4723 c7 -3 16 -2 19 1 4 3 -2 6 -13 5 -11 0 -14 -3 -6 -6z"/>
<path d="M7384 4713 c3 -6 0 -13 -6 -16 -7 -2 -10 -8 -5 -12 4 -5 13 -3 19 3
9 9 9 15 -1 25 -9 8 -12 8 -7 0z"/>
<path d="M7478 4693 c-10 -2 -18 -9 -18 -14 0 -6 8 -5 20 1 11 6 20 13 20 15
0 3 -1 4 -2 4 -2 -1 -11 -3 -20 -6z"/>
<path d="M7408 4673 c7 -3 16 -2 19 1 4 3 -2 6 -13 5 -11 0 -14 -3 -6 -6z"/>
<path d="M7370 4655 c-11 -13 -10 -14 4 -9 9 3 16 10 16 15 0 13 -6 11 -20 -6z"/>
<path d="M7488 4653 c7 -3 16 -2 19 1 4 3 -2 6 -13 5 -11 0 -14 -3 -6 -6z"/>
<path d="M7780 4564 c0 -6 7 -19 15 -30 8 -10 14 -14 14 -9 0 6 -6 19 -14 29
-8 11 -15 15 -15 10z"/>
<path d="M8530 4460 c0 -15 21 -23 32 -12 6 6 2 11 -11 15 -12 3 -21 1 -21 -3z"/>
<path d="M8378 4453 c7 -3 16 -2 19 1 4 3 -2 6 -13 5 -11 0 -14 -3 -6 -6z"/>
<path d="M8495 4450 c3 -5 8 -10 11 -10 2 0 4 5 4 10 0 6 -5 10 -11 10 -5 0
-7 -4 -4 -10z"/>
<path d="M5330 4446 c0 -2 7 -7 16 -10 8 -3 12 -2 9 4 -6 10 -25 14 -25 6z"/>
<path d="M8308 4443 c6 -2 18 -2 25 0 6 3 1 5 -13 5 -14 0 -19 -2 -12 -5z"/>
<path d="M8148 4423 c12 -2 32 -2 45 0 12 2 2 4 -23 4 -25 0 -35 -2 -22 -4z"/>
<path d="M8358 4423 c7 -3 16 -2 19 1 4 3 -2 6 -13 5 -11 0 -14 -3 -6 -6z"/>
<path d="M8048 4403 c7 -3 16 -2 19 1 4 3 -2 6 -13 5 -11 0 -14 -3 -6 -6z"/>
<path d="M8636 4395 c10 -8 23 -15 28 -15 6 0 1 7 -10 15 -10 8 -23 15 -28 15
-6 0 -1 -7 10 -15z"/>
<path d="M5397 4383 c3 -7 6 -13 8 -13 2 0 5 6 8 13 3 8 -1 14 -8 14 -7 0 -11
-6 -8 -14z"/>
<path d="M8513 4233 c4 -3 1 -13 -6 -22 -11 -14 -10 -14 5 -2 16 12 16 31 1
31 -4 0 -3 -3 0 -7z"/>
<path d="M5485 4220 c3 -5 8 -10 11 -10 2 0 4 5 4 10 0 6 -5 10 -11 10 -5 0
-7 -4 -4 -10z"/>
<path d="M8580 4174 c0 -8 5 -12 10 -9 6 4 8 11 5 16 -9 14 -15 11 -15 -7z"/>
<path d="M8610 4175 c0 -8 4 -15 10 -15 5 0 7 7 4 15 -4 8 -8 15 -10 15 -2 0
-4 -7 -4 -15z"/>
<path d="M8390 4150 c-9 -6 -10 -10 -3 -10 6 0 15 5 18 10 8 12 4 12 -15 0z"/>
<path d="M8515 4130 c-3 -5 1 -10 10 -10 9 0 13 5 10 10 -3 6 -8 10 -10 10 -2
0 -7 -4 -10 -10z"/>
<path d="M8333 4115 c-3 -9 -3 -18 -1 -21 3 -3 8 4 11 16 6 23 -1 27 -10 5z"/>
<path d="M5610 4076 c0 -2 8 -10 18 -17 15 -13 16 -12 3 4 -13 16 -21 21 -21
13z"/>
<path d="M8450 4070 c-9 -6 -10 -10 -3 -10 6 0 15 5 18 10 8 12 4 12 -15 0z"/>
<path d="M8256 3965 c-3 -9 -6 -22 -5 -28 0 -7 5 -1 10 12 5 13 8 26 5 28 -2
2 -6 -3 -10 -12z"/>
<path d="M8621 3904 c0 -11 3 -14 6 -6 3 7 2 16 -1 19 -3 4 -6 -2 -5 -13z"/>
<path d="M8203 3833 c-13 -2 -29 -13 -36 -24 -8 -10 -17 -16 -20 -12 -4 3 -7
-1 -7 -10 0 -8 -25 -44 -55 -80 -46 -54 -55 -70 -55 -103 0 -48 31 -101 61
-106 12 -2 24 -9 27 -17 3 -9 -2 -11 -17 -6 -16 5 -21 2 -21 -13 0 -11 8 -22
18 -26 9 -3 23 -9 30 -12 8 -4 12 5 12 29 0 22 -6 37 -15 41 -8 3 -15 16 -15
28 0 13 -7 32 -15 42 -19 25 -19 60 -1 75 11 9 15 9 20 -1 3 -7 3 -3 0 10 -4
15 0 24 10 28 9 3 16 11 16 18 0 6 11 23 24 37 17 19 75 119 63 108 -1 -1 -12
-4 -24 -6z"/>
<path d="M5903 3818 c1 -7 -4 -12 -11 -10 -8 1 -11 -2 -7 -8 5 -8 11 -8 21 1
7 6 11 15 8 20 -8 13 -14 11 -11 -3z"/>
<path d="M6118 6033 c7 -3 16 -2 19 1 4 3 -2 6 -13 5 -11 0 -14 -3 -6 -6z"/>
<path d="M4781 5114 c6 -7 8 -23 4 -36 -5 -19 -4 -20 5 -8 10 12 11 11 7 -7
-3 -12 0 -23 7 -26 9 -3 56 -2 75 2 9 2 -33 41 -43 41 -6 0 -4 -5 4 -10 9 -6
10 -10 3 -10 -17 0 -43 29 -43 49 0 10 -7 18 -15 18 -11 0 -12 -4 -4 -13z"/>
<path d="M4858 5013 c7 -3 16 -2 19 1 4 3 -2 6 -13 5 -11 0 -14 -3 -6 -6z"/>
<path d="M4900 4980 c0 -5 5 -10 10 -10 6 0 10 5 10 10 0 6 -4 10 -10 10 -5 0
-10 -4 -10 -10z"/>
<path d="M7465 440 c3 -5 11 -10 16 -10 6 0 7 5 4 10 -3 6 -11 10 -16 10 -6 0
-7 -4 -4 -10z"/>
<path d="M7433 423 c9 -2 15 -8 13 -11 -2 -4 8 -8 22 -9 l27 -1 -25 14 c-14 7
-32 13 -40 12 -10 0 -10 -2 3 -5z"/>
<path d="M7520 360 c0 -5 5 -10 11 -10 5 0 7 5 4 10 -3 6 -8 10 -11 10 -2 0
-4 -4 -4 -10z"/>
<path d="M7197 273 c-4 -3 -7 -13 -7 -22 1 -13 3 -13 11 2 11 19 8 33 -4 20z"/>
<path d="M4723 4895 c0 -7 6 -11 14 -8 7 3 13 6 13 8 0 2 -6 5 -13 8 -8 3 -14
-1 -14 -8z"/>
<path d="M4840 4889 c0 -5 5 -7 10 -4 6 3 10 8 10 11 0 2 -4 4 -10 4 -5 0 -10
-5 -10 -11z"/>
<path d="M5122 4870 c0 -14 2 -19 5 -12 2 6 2 18 0 25 -3 6 -5 1 -5 -13z"/>
<path d="M5148 4873 c0 -5 -1 -22 -2 -40 -1 -34 8 -36 17 -3 3 13 1 18 -6 13
-6 -4 -8 2 -5 15 4 12 4 22 2 22 -2 0 -5 -3 -6 -7z"/>
<path d="M4742 4780 c0 -14 2 -19 5 -12 2 6 2 18 0 25 -3 6 -5 1 -5 -13z"/>
<path d="M4761 4784 c0 -11 3 -14 6 -6 3 7 2 16 -1 19 -3 4 -6 -2 -5 -13z"/>
<path d="M4791 4784 c0 -11 3 -14 6 -6 3 7 2 16 -1 19 -3 4 -6 -2 -5 -13z"/>
<path d="M5121 4764 c0 -11 3 -14 6 -6 3 7 2 16 -1 19 -3 4 -6 -2 -5 -13z"/>
<path d="M5150 4760 c0 -5 5 -10 11 -10 5 0 7 5 4 10 -3 6 -8 10 -11 10 -2 0
-4 -4 -4 -10z"/>
<path d="M5171 4674 c0 -11 3 -14 6 -6 3 7 2 16 -1 19 -3 4 -6 -2 -5 -13z"/>
<path d="M5141 4664 c0 -11 3 -14 6 -6 3 7 2 16 -1 19 -3 4 -6 -2 -5 -13z"/>
<path d="M4761 4494 c0 -11 3 -14 6 -6 3 7 2 16 -1 19 -3 4 -6 -2 -5 -13z"/>
<path d="M5300 4351 c0 -7 -5 -9 -12 -5 -7 5 -8 3 -3 -5 5 -9 10 -10 18 -2 6
6 8 14 4 18 -4 3 -7 1 -7 -6z"/>
<path d="M5376 4193 c-6 -14 -5 -15 5 -6 7 7 10 15 7 18 -3 3 -9 -2 -12 -12z"/>
<path d="M5457 4091 c-10 -14 -10 -14 4 -4 9 7 18 10 21 7 3 -3 8 -1 12 4 9
16 -24 9 -37 -7z"/>
<path d="M6268 2723 c7 -3 16 -2 19 1 4 3 -2 6 -13 5 -11 0 -14 -3 -6 -6z"/>
<path d="M5720 906 c0 -2 15 -36 34 -77 18 -41 63 -167 100 -281 59 -183 78
-229 91 -217 7 8 -156 483 -182 529 -23 41 -43 63 -43 46z"/>
<path d="M3216 707 c-7 -57 7 -234 23 -309 36 -157 152 -398 193 -398 24 0 23
4 -16 69 -109 181 -159 345 -172 570 -4 61 -10 114 -14 116 -4 3 -11 -19 -14
-48z"/>
<path d="M2931 601 c-7 -5 -12 -14 -10 -20 3 -6 9 -7 18 -2 7 5 12 14 10 20
-3 6 -9 7 -18 2z"/>
<path d="M2980 586 c0 -22 3 -27 11 -19 8 8 8 16 0 30 -9 16 -10 14 -11 -11z"/>
<path d="M3136 568 c-3 -13 -6 -38 -6 -57 0 -33 1 -34 15 -15 17 22 20 48 4
38 -8 -4 -9 3 -4 25 8 35 0 43 -9 9z"/>
<path d="M2851 345 c1 -19 18 -51 18 -35 0 8 -4 22 -9 30 -5 8 -9 11 -9 5z"/>
<path d="M5950 285 c0 -9 7 -32 16 -53 21 -47 31 -24 14 29 -13 39 -30 52 -30
24z"/>
<path d="M2815 254 c-9 -50 0 -53 13 -4 5 22 6 40 2 40 -4 0 -11 -16 -15 -36z"/>
<path d="M2850 279 c0 -5 5 -7 10 -4 6 3 10 8 10 11 0 2 -4 4 -10 4 -5 0 -10
-5 -10 -11z"/>
<path d="M3214 245 c0 -28 2 -42 4 -32 3 16 6 15 18 -8 8 -15 14 -33 14 -41 0
-20 22 -64 32 -64 4 0 4 8 -1 18 -5 9 -19 44 -31 77 -12 33 -25 69 -29 80 -5
12 -8 2 -7 -30z"/>
<path d="M3045 225 c-3 -26 -4 -49 -2 -51 3 -3 8 16 12 41 3 26 4 49 2 51 -3
3 -8 -16 -12 -41z"/>
<path d="M7330 214 c0 -14 4 -23 9 -20 5 3 7 15 4 26 -7 28 -13 25 -13 -6z"/>
<path d="M7610 217 c0 -14 -3 -34 -7 -44 -6 -17 -5 -17 15 1 26 22 28 39 7 56
-13 11 -15 8 -15 -13z"/>
<path d="M2835 200 c-8 -37 1 -67 24 -79 16 -9 17 -5 13 42 -5 62 -12 76 -12
24 0 -21 -5 -37 -11 -37 -8 0 -9 13 -5 40 7 46 1 54 -9 10z"/>
<path d="M5995 190 c-13 -20 114 -190 142 -190 10 0 1 17 -24 48 -22 26 -56
71 -75 100 -21 32 -39 49 -43 42z"/>
<path d="M3220 181 c0 -6 4 -13 10 -16 6 -3 7 1 4 9 -7 18 -14 21 -14 7z"/>
<path d="M3060 170 c0 -5 5 -10 10 -10 6 0 10 5 10 10 0 6 -4 10 -10 10 -5 0
-10 -4 -10 -10z"/>
<path d="M7646 165 c-3 -8 -1 -15 4 -15 6 0 10 7 10 15 0 8 -2 15 -4 15 -2 0
-6 -7 -10 -15z"/>
<path d="M3211 144 c0 -11 3 -14 6 -6 3 7 2 16 -1 19 -3 4 -6 -2 -5 -13z"/>
<path d="M3230 134 c0 -8 5 -12 10 -9 6 4 8 11 5 16 -9 14 -15 11 -15 -7z"/>
<path d="M3250 95 c0 -5 5 -17 10 -25 5 -8 10 -10 10 -5 0 6 -5 17 -10 25 -5
8 -10 11 -10 5z"/>
<path d="M3290 83 c0 -19 22 -63 32 -63 5 0 6 5 3 10 -3 6 -13 22 -21 38 -7
15 -14 22 -14 15z"/>
<path d="M7526 64 c-6 -15 17 -64 29 -64 7 0 -8 35 -19 42 -6 4 -5 12 3 22 8
9 9 16 3 16 -5 0 -13 -7 -16 -16z"/>
<path d="M3240 44 c0 -10 5 -26 10 -34 8 -11 9 -7 4 15 -8 37 -14 45 -14 19z"/>
<path d="M3270 34 c0 -8 5 -12 10 -9 6 3 10 10 10 16 0 5 -4 9 -10 9 -5 0 -10
-7 -10 -16z"/>
</g>
</svg>
